<svg xmlns="http://www.w3.org/2000/svg" width="393.4002685546875" height="644.7412109375" viewBox="-191.91038513183594 -317.0373840332031 393.4002685546875 644.7412109375"><title>Neo4j Graph Visualization</title><desc>Created using Neo4j (http://www.neo4j.com/)</desc><g class="layer relationships"><g class="relationship" transform="translate(25.722696088881957 172.33337144290738) rotate(508.5994118128818)"><path class="outline" fill="#A5ABB6" stroke="none" d="M 25 0.5 L 45.95896803724948 0.5 L 45.95896803724948 -0.5 L 25 -0.5 Z M 91.52146803724948 0.5 L 112.48043607449895 0.5 L 112.48043607449895 3.5 L 119.48043607449895 0 L 112.48043607449895 -3.5 L 112.48043607449895 -0.5 L 91.52146803724948 -0.5 Z"/><text text-anchor="middle" pointer-events="none" font-size="8px" fill="#000000" x="68.74021803724948" y="3" transform="rotate(180 68.74021803724948 0)" font-family="sans-serif">ACTED_IN</text></g><g class="relationship" transform="translate(25.722696088881957 172.33337144290738) rotate(421.2793521693393)"><path class="outline" fill="#A5ABB6" stroke="none" d="M 25 0.5 L 45.76797871713738 0.5 L 45.76797871713738 -0.5 L 25 -0.5 Z M 91.33047871713738 0.5 L 112.09845743427476 0.5 L 112.09845743427476 3.5 L 119.09845743427476 0 L 112.09845743427476 -3.5 L 112.09845743427476 -0.5 L 91.33047871713738 -0.5 Z"/><text text-anchor="middle" pointer-events="none" font-size="8px" fill="#000000" x="68.54922871713738" y="3" font-family="sans-serif">ACTED_IN</text></g><g class="relationship" transform="translate(25.722696088881957 172.33337144290738) rotate(366.69348539875006)"><path class="outline" fill="#A5ABB6" stroke="none" d="M 25 0.5 L 47.605979217313035 0.5 L 47.605979217313035 -0.5 L 25 -0.5 Z M 93.16847921731303 0.5 L 115.77445843462607 0.5 L 115.77445843462607 3.5 L 122.77445843462607 0 L 115.77445843462607 -3.5 L 115.77445843462607 -0.5 L 93.16847921731303 -0.5 Z"/><text text-anchor="middle" pointer-events="none" font-size="8px" fill="#000000" x="70.38722921731303" y="3" font-family="sans-serif">ACTED_IN</text></g><g class="relationship" transform="translate(25.722696088881957 172.33337144290738) rotate(327.41788494051775)"><path class="outline" fill="#A5ABB6" stroke="none" d="M 25 0.5 L 48.237444050617555 0.5 L 48.237444050617555 -0.5 L 25 -0.5 Z M 93.79994405061755 0.5 L 117.03738810123511 0.5 L 117.03738810123511 3.5 L 124.03738810123511 0 L 117.03738810123511 -3.5 L 117.03738810123511 -0.5 L 93.79994405061755 -0.5 Z"/><text text-anchor="middle" pointer-events="none" font-size="8px" fill="#000000" x="71.01869405061755" y="3" font-family="sans-serif">ACTED_IN</text></g><g class="relationship" transform="translate(25.722696088881957 172.33337144290738) rotate(286.4938196666366)"><path class="outline" fill="#A5ABB6" stroke="none" d="M 25 0.5 L 46.06802322758833 0.5 L 46.06802322758833 -0.5 L 25 -0.5 Z M 91.63052322758833 0.5 L 112.69854645517665 0.5 L 112.69854645517665 3.5 L 119.69854645517665 0 L 112.69854645517665 -3.5 L 112.69854645517665 -0.5 L 91.63052322758833 -0.5 Z"/><text text-anchor="middle" pointer-events="none" font-size="8px" fill="#000000" x="68.84927322758833" y="3" font-family="sans-serif">ACTED_IN</text></g><g class="relationship" transform="translate(-14.78275620862004 -183.71198823287588) rotate(315.35902387463676)"><path class="outline" fill="#A5ABB6" stroke="none" d="M 25 0.5 L 45.6654545716312 0.5 L 45.6654545716312 -0.5 L 25 -0.5 Z M 91.2279545716312 0.5 L 111.8934091432624 0.5 L 111.8934091432624 3.5 L 118.8934091432624 0 L 111.8934091432624 -3.5 L 111.8934091432624 -0.5 L 91.2279545716312 -0.5 Z"/><text text-anchor="middle" pointer-events="none" font-size="8px" fill="#000000" x="68.4467045716312" y="3" font-family="sans-serif">ACTED_IN</text></g><g class="relationship" transform="translate(-14.78275620862004 -183.71198823287588) rotate(225.87428535886897)"><path class="outline" fill="#A5ABB6" stroke="none" d="M 25 0.5 L 46.387573498275046 0.5 L 46.387573498275046 -0.5 L 25 -0.5 Z M 91.95007349827505 0.5 L 113.33764699655009 0.5 L 113.33764699655009 3.5 L 120.33764699655009 0 L 113.33764699655009 -3.5 L 113.33764699655009 -0.5 L 91.95007349827505 -0.5 Z"/><text text-anchor="middle" pointer-events="none" font-size="8px" fill="#000000" x="69.16882349827505" y="3" transform="rotate(180 69.16882349827505 0)" font-family="sans-serif">ACTED_IN</text></g><g class="relationship" transform="translate(-14.78275620862004 -183.71198823287588) rotate(181.57213579057634)"><path class="outline" fill="#A5ABB6" stroke="none" d="M 25 0.5 L 47.810450821801425 0.5 L 47.810450821801425 -0.5 L 25 -0.5 Z M 93.37295082180142 0.5 L 116.18340164360285 0.5 L 116.18340164360285 3.5 L 123.18340164360285 0 L 116.18340164360285 -3.5 L 116.18340164360285 -0.5 L 93.37295082180142 -0.5 Z"/><text text-anchor="middle" pointer-events="none" font-size="8px" fill="#000000" x="70.59170082180142" y="3" transform="rotate(180 70.59170082180142 0)" font-family="sans-serif">ACTED_IN</text></g><g class="relationship" transform="translate(-14.78275620862004 -183.71198823287588) rotate(502.45952644207637)"><path class="outline" fill="#A5ABB6" stroke="none" d="M 25 0.5 L 48.58945596289938 0.5 L 48.58945596289938 -0.5 L 25 -0.5 Z M 94.15195596289938 0.5 L 117.74141192579876 0.5 L 117.74141192579876 3.5 L 124.74141192579876 0 L 117.74141192579876 -3.5 L 117.74141192579876 -0.5 L 94.15195596289938 -0.5 Z"/><text text-anchor="middle" pointer-events="none" font-size="8px" fill="#000000" x="71.37070596289938" y="3" transform="rotate(180 71.37070596289938 0)" font-family="sans-serif">ACTED_IN</text></g><g class="relationship" transform="translate(-14.78275620862004 -183.71198823287588) rotate(462.79667125388676)"><path class="outline" fill="#A5ABB6" stroke="none" d="M 25 0.5 L 45.70113228244023 0.5 L 45.70113228244023 -0.5 L 25 -0.5 Z M 91.26363228244023 0.5 L 111.96476456488045 0.5 L 111.96476456488045 3.5 L 118.96476456488045 0 L 111.96476456488045 -3.5 L 111.96476456488045 -0.5 L 91.26363228244023 -0.5 Z"/><text text-anchor="middle" pointer-events="none" font-size="8px" fill="#000000" x="68.48238228244023" y="3" transform="rotate(180 68.48238228244023 0)" font-family="sans-serif">ACTED_IN</text></g></g><g class="layer nodes"><g class="node" aria-label="graph-node4" transform="translate(25.722696088881957,172.33337144290738)"><circle class="outline" cx="0" cy="0" r="25" fill="#C990C0" stroke="#b261a5" stroke-width="2px"/><text class="caption" text-anchor="middle" pointer-events="none" x="0" y="0" font-size="10px" fill="#FFFFFF" font-family="sans-serif"> Hugo</text><text class="caption" text-anchor="middle" pointer-events="none" x="0" y="10" font-size="10px" fill="#FFFFFF" font-family="sans-serif"> Weavi…</text></g><g class="node" aria-label="graph-node105" transform="translate(-97.59792254128881,247.61033623924703)"><circle class="outline" cx="0" cy="0" r="25" fill="#F79767" stroke="#f36924" stroke-width="2px"/><text class="caption" text-anchor="middle" pointer-events="none" x="0" y="0" font-size="10px" fill="#FFFFFF" font-family="sans-serif"> Cloud</text><text class="caption" text-anchor="middle" pointer-events="none" x="0" y="10" font-size="10px" fill="#FFFFFF" font-family="sans-serif"> Atlas</text></g><g class="node" aria-label="graph-node116" transform="translate(94.96770624554954,298.7038347772661)"><circle class="outline" cx="0" cy="0" r="25" fill="#F79767" stroke="#f36924" stroke-width="2px"/><text class="caption" text-anchor="middle" pointer-events="none" x="0" y="0" font-size="10px" fill="#FFFFFF" font-family="sans-serif"> V for</text><text class="caption" text-anchor="middle" pointer-events="none" x="0" y="10" font-size="10px" fill="#FFFFFF" font-family="sans-serif"> Vende…</text></g><g class="node" aria-label="graph-node10" transform="translate(172.48991032688772,189.55763892986735)"><circle class="outline" cx="0" cy="0" r="25" fill="#F79767" stroke="#f36924" stroke-width="2px"/><text class="caption" text-anchor="middle" pointer-events="none" x="0" y="-5" font-size="10px" fill="#FFFFFF" font-family="sans-serif"> The</text><text class="caption" text-anchor="middle" pointer-events="none" x="0" y="5" font-size="10px" fill="#FFFFFF" font-family="sans-serif"> Matrix</text><text class="caption" text-anchor="middle" pointer-events="none" x="0" y="15" font-size="10px" fill="#FFFFFF" font-family="sans-serif"> Rev…</text></g><g class="node" aria-label="graph-node9" transform="translate(151.30465961484006,92.0755774973777)"><circle class="outline" cx="0" cy="0" r="25" fill="#F79767" stroke="#f36924" stroke-width="2px"/><text class="caption" text-anchor="middle" pointer-events="none" x="0" y="-5" font-size="10px" fill="#FFFFFF" font-family="sans-serif"> The</text><text class="caption" text-anchor="middle" pointer-events="none" x="0" y="5" font-size="10px" fill="#FFFFFF" font-family="sans-serif"> Matrix</text><text class="caption" text-anchor="middle" pointer-events="none" x="0" y="15" font-size="10px" fill="#FFFFFF" font-family="sans-serif"> Rel…</text></g><g class="node" aria-label="graph-node0" transform="translate(66.80433792803491,33.58911732750097)"><circle class="outline" cx="0" cy="0" r="25" fill="#F79767" stroke="#f36924" stroke-width="2px"/><text class="caption" text-anchor="middle" pointer-events="none" x="0" y="0" font-size="10px" fill="#FFFFFF" font-family="sans-serif"> The</text><text class="caption" text-anchor="middle" pointer-events="none" x="0" y="10" font-size="10px" fill="#FFFFFF" font-family="sans-serif"> Matrix</text></g><g class="node" aria-label="graph-node175" transform="translate(-14.78275620862004,-183.71198823287588)"><circle class="outline" cx="0" cy="0" r="25" fill="#C990C0" stroke="#b261a5" stroke-width="2px"/><text class="caption" text-anchor="middle" pointer-events="none" x="0" y="0" font-size="10px" fill="#FFFFFF" font-family="sans-serif"> Hugo</text><text class="caption" text-anchor="middle" pointer-events="none" x="0" y="10" font-size="10px" fill="#FFFFFF" font-family="sans-serif"> Weavi…</text></g><g class="node" aria-label="graph-node287" transform="translate(87.60081558267564,-284.82043210442856)"><circle class="outline" cx="0" cy="0" r="25" fill="#F79767" stroke="#f36924" stroke-width="2px"/><text class="caption" text-anchor="middle" pointer-events="none" x="0" y="0" font-size="10px" fill="#FFFFFF" font-family="sans-serif"> V for</text><text class="caption" text-anchor="middle" pointer-events="none" x="0" y="10" font-size="10px" fill="#FFFFFF" font-family="sans-serif"> Vende…</text></g><g class="node" aria-label="graph-node181" transform="translate(-115.97191653902892,-288.0373708879163)"><circle class="outline" cx="0" cy="0" r="25" fill="#F79767" stroke="#f36924" stroke-width="2px"/><text class="caption" text-anchor="middle" pointer-events="none" x="0" y="-5" font-size="10px" fill="#FFFFFF" font-family="sans-serif"> The</text><text class="caption" text-anchor="middle" pointer-events="none" x="0" y="5" font-size="10px" fill="#FFFFFF" font-family="sans-serif"> Matrix</text><text class="caption" text-anchor="middle" pointer-events="none" x="0" y="15" font-size="10px" fill="#FFFFFF" font-family="sans-serif"> Rev…</text></g><g class="node" aria-label="graph-node180" transform="translate(-162.9103780255077,-187.77747437138737)"><circle class="outline" cx="0" cy="0" r="25" fill="#F79767" stroke="#f36924" stroke-width="2px"/><text class="caption" text-anchor="middle" pointer-events="none" x="0" y="-5" font-size="10px" fill="#FFFFFF" font-family="sans-serif"> The</text><text class="caption" text-anchor="middle" pointer-events="none" x="0" y="5" font-size="10px" fill="#FFFFFF" font-family="sans-serif"> Matrix</text><text class="caption" text-anchor="middle" pointer-events="none" x="0" y="15" font-size="10px" fill="#FFFFFF" font-family="sans-serif"> Rel…</text></g><g class="node" aria-label="graph-node171" transform="translate(-133.5161830322813,-92.4712966515314)"><circle class="outline" cx="0" cy="0" r="25" fill="#F79767" stroke="#f36924" stroke-width="2px"/><text class="caption" text-anchor="middle" pointer-events="none" x="0" y="0" font-size="10px" fill="#FFFFFF" font-family="sans-serif"> The</text><text class="caption" text-anchor="middle" pointer-events="none" x="0" y="10" font-size="10px" fill="#FFFFFF" font-family="sans-serif"> Matrix</text></g><g class="node" aria-label="graph-node276" transform="translate(-46.66977730082068,-43.322988229004466)"><circle class="outline" cx="0" cy="0" r="25" fill="#F79767" stroke="#f36924" stroke-width="2px"/><text class="caption" text-anchor="middle" pointer-events="none" x="0" y="0" font-size="10px" fill="#FFFFFF" font-family="sans-serif"> Cloud</text><text class="caption" text-anchor="middle" pointer-events="none" x="0" y="10" font-size="10px" fill="#FFFFFF" font-family="sans-serif"> Atlas</text></g></g></svg>