<svg xmlns="http://www.w3.org/2000/svg" width="417.5233154296875" height="460.99761962890625" viewBox="-228.0988006591797 -232.44070434570312 417.5233154296875 460.99761962890625"><title>Neo4j Graph Visualization</title><desc>Created using Neo4j (http://www.neo4j.com/)</desc><g class="layer relationships"><g class="relationship" transform="translate(52.866559794396984 -14.990931134458982) rotate(309.368349232945)"><path class="outline" fill="#A5ABB6" stroke="none" d="M 24.018736134675446,-6.953439040707552 L 24.277555179777966,-5.987513214418485 A 229.23428462940709 229.23428462940709 0 0 1 70.27814664994979,-13.41060622273443 L 70.2199982486148,-14.408914172929258 A 230.23428462940709 230.23428462940709 0 0 0 24.018736134675446,-6.953439040707552 Z M 92.27002293652393,-14.635470969675623 L 92.23239922154096,-13.636178992288194 A 229.23428462940709 229.23428462940709 0 0 1 138.37580285965976,-7.159835416982847 L 137.65905079376506,-4.246715701620001 L 145.2925408731555,-5.972933882455724 L 139.33147228085267,-11.04399503746664 L 138.61472021495797,-8.130875322103796 A 230.23428462940709 230.23428462940709 0 0 0 92.27002293652393,-14.635470969675623"/><text text-anchor="middle" pointer-events="none" font-size="8px" fill="#000000" x="81.24743372998404" y="-11.2863566105936" font-family="sans-serif">road</text></g><g class="relationship" transform="translate(160.4244858273276 -146.08166992603245) rotate(209.02779348266972)"><path class="outline" fill="#A5ABB6" stroke="none" d="M 21.40063509461097,-12.933012701892217 L 21.90063509461097,-12.06698729810778 A 71.03242124642308 71.03242124642308 0 0 1 32.86401806906316,-17.205164566835762 L 32.51836143484001,-18.14352563338612 A 72.03242124642308 72.03242124642308 0 0 0 21.40063509461097,-12.933012701892217 Z M 78.47150631370958,-19.437759124493013 L 78.17921209075324,-18.481430683408917 A 71.03242124642308 71.03242124642308 0 0 1 89.4144119476899,-13.96845870653254 L 88.0630192032896,-11.290075304108194 L 95.8892053440801,-11.261606203335887 L 91.21626894022364,-17.53963657643167 L 89.86487619582334,-14.861253174007322 A 72.03242124642308 72.03242124642308 0 0 0 78.47150631370958,-19.437759124493013"/><text text-anchor="middle" pointer-events="none" font-size="8px" fill="#000000" x="55.402990969953834" y="-19.055173572018077" transform="rotate(180 55.402990969953834 -22.055173572018077)" font-family="sans-serif">twowheeler</text></g><g class="relationship" transform="translate(57.064318246339575 -203.44070832415787) rotate(420.199104562898)"><path class="outline" fill="#A5ABB6" stroke="none" d="M 21.40063509461097,12.933012701892217 L 21.90063509461097,12.06698729810778 A 133.58503282806168 133.58503282806168 0 0 0 63.1870712371407,27.50637754954154 L 62.99613607223843,28.487980199702875 A 134.58503282806168 134.58503282806168 0 0 1 21.40063509461097,12.933012701892217 Z M 109.39299791521185,29.36259121449821 L 109.23919294914988,28.374489988704696 A 133.58503282806168 133.58503282806168 0 0 0 151.0781758132823,14.502067936946956 L 149.67715753337654,11.8493056446618 L 157.50145754193193,11.675152332547778 L 152.94620018648993,18.039084326660497 L 151.5451819065842,15.386322034375342 A 134.58503282806168 134.58503282806168 0 0 1 109.39299791521185,29.36259121449821"/><text text-anchor="middle" pointer-events="none" font-size="8px" fill="#000000" x="86.16601041863665" y="33.44017112093151" font-family="sans-serif">twowheeler</text></g><g class="relationship" transform="translate(146.3271587825406 -47.58465068001827) rotate(469.0834284995289)"><path class="outline" fill="#A5ABB6" stroke="none" d="M 25 0.5 L 77.65186602153494 0.5 L 77.65186602153494 -0.5 L 25 -0.5 Z M 96.98780352153494 0.5 L 149.63966954306989 0.5 L 149.63966954306989 3.5 L 156.63966954306989 0 L 149.63966954306989 -3.5 L 149.63966954306989 -0.5 L 96.98780352153494 -0.5 Z"/><text text-anchor="middle" pointer-events="none" font-size="8px" fill="#000000" x="87.31983477153494" y="3" transform="rotate(180 87.31983477153494 0)" font-family="sans-serif">trek</text></g><g class="relationship" transform="translate(57.064318246339575 -203.44070832415787) rotate(420.199104562898)"><path class="outline" fill="#A5ABB6" stroke="none" d="M 25 0.5 L 75.2980456138208 0.5 L 75.2980456138208 -0.5 L 25 -0.5 Z M 97.3097643638208 0.5 L 147.6078099776416 0.5 L 147.6078099776416 3.5 L 154.6078099776416 0 L 147.6078099776416 -3.5 L 147.6078099776416 -0.5 L 97.3097643638208 -0.5 Z"/><text text-anchor="middle" pointer-events="none" font-size="8px" fill="#000000" x="86.3039049888208" y="3" font-family="sans-serif">road</text></g><g class="relationship" transform="translate(57.064318246339575 -203.44070832415787) rotate(420.199104562898)"><path class="outline" fill="#A5ABB6" stroke="none" d="M 21.40063509461097,-12.933012701892217 L 21.90063509461097,-12.06698729810778 A 133.58503282806168 133.58503282806168 0 0 1 76.56011186842188,-29.41184726934908 L 76.4692855281998,-30.407714015415976 A 134.58503282806168 134.58503282806168 0 0 0 21.40063509461097,-12.933012701892217 Z M 95.85706959297728,-30.773186351732946 L 95.80383991406129,-29.77460405603445 A 133.58503282806168 133.58503282806168 0 0 1 151.0781758132823,-14.502067936946956 L 149.67715753337654,-11.8493056446618 L 157.50145754193193,-11.675152332547778 L 152.94620018648993,-18.039084326660497 L 151.5451819065842,-15.386322034375342 A 134.58503282806168 134.58503282806168 0 0 0 95.85706959297728,-30.773186351732946"/><text text-anchor="middle" pointer-events="none" font-size="8px" fill="#000000" x="86.16601041863669" y="-27.44017112093151" font-family="sans-serif">trek</text></g><g class="relationship" transform="translate(160.4244858273276 -146.08166992603245) rotate(209.02779348266972)"><path class="outline" fill="#A5ABB6" stroke="none" d="M 25 0.5 L 44.598674140474834 0.5 L 44.598674140474834 -0.5 L 25 -0.5 Z M 66.61039289047483 0.5 L 86.20906703094967 0.5 L 86.20906703094967 3.5 L 93.20906703094967 0 L 86.20906703094967 -3.5 L 86.20906703094967 -0.5 L 66.61039289047483 -0.5 Z"/><text text-anchor="middle" pointer-events="none" font-size="8px" fill="#000000" x="55.604533515474834" y="3" transform="rotate(180 55.604533515474834 0)" font-family="sans-serif">road</text></g><g class="relationship" transform="translate(160.4244858273276 -146.08166992603245) rotate(209.02779348266972)"><path class="outline" fill="#A5ABB6" stroke="none" d="M 21.40063509461097,12.933012701892217 L 21.90063509461097,12.06698729810778 A 71.03242124642308 71.03242124642308 0 0 0 45.86790866084132,20.638386742504224 L 45.705321818744025,21.625080980237897 A 72.03242124642308 72.03242124642308 0 0 1 21.40063509461097,12.933012701892217 Z M 65.10949472909394,22.171583956563055 L 65.0027004706453,21.177302816058827 A 71.03242124642308 71.03242124642308 0 0 0 89.4144119476899,13.96845870653254 L 88.0630192032896,11.290075304108194 L 95.8892053440801,11.261606203335887 L 91.21626894022364,17.53963657643167 L 89.86487619582334,14.861253174007322 A 72.03242124642308 72.03242124642308 0 0 1 65.10949472909394,22.171583956563055"/><text text-anchor="middle" pointer-events="none" font-size="8px" fill="#000000" x="55.40299096995384" y="25.055173572018077" transform="rotate(180 55.40299096995384 22.055173572018077)" font-family="sans-serif">trek</text></g><g class="relationship" transform="translate(52.866559794396984 -14.990931134458982) rotate(309.368349232945)"><path class="outline" fill="#A5ABB6" stroke="none" d="M 24.018736134675446,6.953439040707552 L 24.277555179777966,5.987513214418485 A 229.23428462940709 229.23428462940709 0 0 0 71.61108510433245,13.484352035043628 L 71.55875144600824,14.482981690224364 A 230.23428462940709 230.23428462940709 0 0 1 24.018736134675446,6.953439040707552 Z M 90.93003049232061,14.682015251035693 L 90.89822690289523,13.6825211131341 A 229.23428462940709 229.23428462940709 0 0 0 138.37580285965976,7.159835416982847 L 137.65905079376506,4.246715701620001 L 145.2925408731555,5.972933882455724 L 139.33147228085267,11.04399503746664 L 138.61472021495797,8.130875322103796 A 230.23428462940709 230.23428462940709 0 0 1 90.93003049232061,14.682015251035693"/><text text-anchor="middle" pointer-events="none" font-size="8px" fill="#000000" x="81.24743372998407" y="17.2863566105936" font-family="sans-serif">trek</text></g><g class="relationship" transform="translate(52.866559794396984 -14.990931134458982) rotate(240.42295888852834)"><path class="outline" fill="#A5ABB6" stroke="none" d="M 21.40063509461097,12.933012701892217 L 21.90063509461097,12.06698729810778 A 85.19813473490625 85.19813473490625 0 0 0 52.76650100602763,22.66957688387386 L 52.62878435891388,23.660048551872364 A 86.19813473490625 86.19813473490625 0 0 1 21.40063509461097,12.933012701892217 Z M 72.03007678437139,24.151811642784125 L 71.94271556309361,23.1556349430883 A 85.19813473490625 85.19813473490625 0 0 0 103.3060873412035,14.130365135829907 L 101.93963542298187,11.459633184624693 L 109.76553721371927,11.387099318513622 L 105.12802323216567,17.691341070770193 L 103.76157131394405,15.020609119564979 A 86.19813473490625 86.19813473490625 0 0 1 72.03007678437139,24.151811642784125"/><text text-anchor="middle" pointer-events="none" font-size="8px" fill="#000000" x="62.328215767964494" y="26.953857161873515" transform="rotate(180 62.328215767964494 23.953857161873515)" font-family="sans-serif">trek</text></g><g class="relationship" transform="translate(-12.298450532450673 -129.80919629434806) rotate(508.76160892827505)"><path class="outline" fill="#A5ABB6" stroke="none" d="M 24.018736134675446,-6.953439040707552 L 24.277555179777966,-5.987513214418485 A 233.51451714286 233.51451714286 0 0 1 59.213912703896696,-12.5476590805863 L 59.10470473202241,-13.541678003383595 A 234.51451714286 234.51451714286 0 0 0 24.018736134675446,-6.953439040707552 Z M 105.58998013910025,-14.013451232616688 L 105.50096893045888,-13.017420608219908 A 233.51451714286 233.51451714286 0 0 1 140.56327281165636,-7.167682376383383 L 139.84578791216438,-4.254743067197387 L 147.47971201633902,-5.97904082909978 L 141.5199193443123,-11.051601455298046 L 140.80243444482034,-8.138662146112049 A 234.51451714286 234.51451714286 0 0 0 105.58998013910025,-14.013451232616688"/><text text-anchor="middle" pointer-events="none" font-size="8px" fill="#000000" x="82.34069784517868" y="-11.432276659221742" transform="rotate(180 82.34069784517868 -14.432276659221742)" font-family="sans-serif">twowheeler</text></g><g class="relationship" transform="translate(-159.1512104986725 -40.73745970999023) rotate(412.5464927308266)"><path class="outline" fill="#A5ABB6" stroke="none" d="M 24.018736134675446,-6.953439040707552 L 24.277555179777966,-5.987513214418485 A 199.23867834142067 199.23867834142067 0 0 1 50.49749691106865,-11.157538764245032 L 50.37027852678943,-12.14941349560047 A 200.23867834142067 200.23867834142067 0 0 0 24.018736134675446,-6.953439040707552 Z M 96.84353386874083,-12.672258881722968 L 96.73866294976013,-11.67777303951496 A 199.23867834142067 199.23867834142067 0 0 1 123.06828364195432,-7.098954110651577 L 122.35721743162586,-4.184441313539661 L 129.98732453693685,-5.92555175273716 L 124.01637192239227,-10.984971173467464 L 123.3053057120638,-8.070458376355548 A 200.23867834142067 200.23867834142067 0 0 0 96.84353386874083,-12.672258881722968"/><text text-anchor="middle" pointer-events="none" font-size="8px" fill="#000000" x="73.59731033578775" y="-10.263767008627468" font-family="sans-serif">twowheeler</text></g><g class="relationship" transform="translate(-65.33393103620135 81.73324072366948) rotate(375.5383945143103)"><path class="outline" fill="#A5ABB6" stroke="none" d="M 24.018736134675446,6.953439040707552 L 24.277555179777966,5.987513214418485 A 206.6540045741002 206.6540045741002 0 0 0 52.37988302407962,11.464193215899257 L 52.257051316373335,12.456620730422088 A 207.6540045741002 207.6540045741002 0 0 1 24.018736134675446,6.953439040707552 Z M 98.73366012130825,12.9675220915299 L 98.63267428742529,11.972634227821146 A 206.6540045741002 206.6540045741002 0 0 0 126.84860323499188,7.115041435799812 L 126.13603457184072,4.20089560892447 L 133.76703827489288,5.938072192926333 L 127.7986947858601,11.000569204966936 L 127.08612612270895,8.086423378091594 A 207.6540045741002 207.6540045741002 0 0 1 98.73366012130825,12.9675220915299"/><text text-anchor="middle" pointer-events="none" font-size="8px" fill="#000000" x="75.48651222292455" y="16.516562710971613" font-family="sans-serif">twowheeler</text></g><g class="relationship" transform="translate(-65.33393103620135 81.73324072366948) rotate(375.5383945143103)"><path class="outline" fill="#A5ABB6" stroke="none" d="M 24.018736134675446,-6.953439040707552 L 24.277555179777966,-5.987513214418485 A 206.6540045741002 206.6540045741002 0 0 1 65.85393138092692,-12.685612459721398 L 65.79630067614636,-13.683950429482366 A 207.6540045741002 207.6540045741002 0 0 0 24.018736134675446,-6.953439040707552 Z M 85.1707025252896,-13.896926559408769 L 85.13503186615532,-12.897562959873085 A 206.6540045741002 206.6540045741002 0 0 1 126.84860323499188,-7.115041435799812 L 126.13603457184072,-4.20089560892447 L 133.76703827489288,-5.938072192926333 L 127.7986947858601,-11.000569204966936 L 127.08612612270895,-8.086423378091594 A 207.6540045741002 207.6540045741002 0 0 0 85.1707025252896,-13.896926559408769"/><text text-anchor="middle" pointer-events="none" font-size="8px" fill="#000000" x="75.48651222292449" y="-10.516562710971613" font-family="sans-serif">trek</text></g><g class="relationship" transform="translate(-159.1512104986725 -40.73745970999023) rotate(412.5464927308266)"><path class="outline" fill="#A5ABB6" stroke="none" d="M 24.018736134675446,6.953439040707552 L 24.277555179777966,5.987513214418485 A 199.23867834142067 199.23867834142067 0 0 0 63.966168359847615,12.422017354543101 L 63.906550662146415,13.42023863768668 A 200.23867834142067 200.23867834142067 0 0 1 24.018736134675446,6.953439040707552 Z M 83.28209683755739,13.638222397310955 L 83.24495227965492,12.638912494518905 A 199.23867834142067 199.23867834142067 0 0 0 123.06828364195432,7.098954110651577 L 122.35721743162586,4.184441313539661 L 129.98732453693685,5.92555175273716 L 124.01637192239227,10.984971173467464 L 123.3053057120638,8.070458376355548 A 200.23867834142067 200.23867834142067 0 0 1 83.28209683755739,13.638222397310955"/><text text-anchor="middle" pointer-events="none" font-size="8px" fill="#000000" x="73.59731033578774" y="16.263767008627468" font-family="sans-serif">trek</text></g><g class="relationship" transform="translate(-12.298450532450673 -129.80919629434806) rotate(508.76160892827505)"><path class="outline" fill="#A5ABB6" stroke="none" d="M 24.018736134675446,6.953439040707552 L 24.277555179777966,5.987513214418485 A 233.51451714286 233.51451714286 0 0 0 72.70372291583561,13.63518222430747 L 72.65228355885085,14.633858344254776 A 234.51451714286 234.51451714286 0 0 1 24.018736134675446,6.953439040707552 Z M 92.02302529731966,14.830449572392467 L 91.9918653253824,13.830935162216775 A 233.51451714286 233.51451714286 0 0 0 140.56327281165636,7.167682376383383 L 139.84578791216438,4.254743067197387 L 147.47971201633902,5.97904082909978 L 141.5199193443123,11.051601455298046 L 140.80243444482034,8.138662146112049 A 234.51451714286 234.51451714286 0 0 1 92.02302529731966,14.830449572392467"/><text text-anchor="middle" pointer-events="none" font-size="8px" fill="#000000" x="82.34069784517878" y="17.432276659221742" transform="rotate(180 82.34069784517878 14.432276659221742)" font-family="sans-serif">trek</text></g><g class="relationship" transform="translate(-12.298450532450673 -129.80919629434806) rotate(387.4002390229687)"><path class="outline" fill="#A5ABB6" stroke="none" d="M 25 0.5 L 76.16701856185229 0.5 L 76.16701856185229 -0.5 L 25 -0.5 Z M 95.50295606185229 0.5 L 146.66997462370458 0.5 L 146.66997462370458 3.5 L 153.66997462370458 0 L 146.66997462370458 -3.5 L 146.66997462370458 -0.5 L 95.50295606185229 -0.5 Z"/><text text-anchor="middle" pointer-events="none" font-size="8px" fill="#000000" x="85.83498731185229" y="3" font-family="sans-serif">trek</text></g><g class="relationship" transform="translate(52.866559794396984 -14.990931134458982) rotate(240.42295888852834)"><path class="outline" fill="#A5ABB6" stroke="none" d="M 25 0.5 L 51.504959028548 0.5 L 51.504959028548 -0.5 L 25 -0.5 Z M 73.516677778548 0.5 L 100.021636807096 0.5 L 100.021636807096 3.5 L 107.021636807096 0 L 100.021636807096 -3.5 L 100.021636807096 -0.5 L 73.516677778548 -0.5 Z"/><text text-anchor="middle" pointer-events="none" font-size="8px" fill="#000000" x="62.510818403548" y="3" transform="rotate(180 62.510818403548 0)" font-family="sans-serif">road</text></g><g class="relationship" transform="translate(52.866559794396984 -14.990931134458982) rotate(240.42295888852834)"><path class="outline" fill="#A5ABB6" stroke="none" d="M 21.40063509461097,-12.933012701892217 L 21.90063509461097,-12.06698729810778 A 85.19813473490625 85.19813473490625 0 0 1 32.46478986595094,-17.22933719897115 L 32.0887850074433,-18.155954890567116 A 86.19813473490625 86.19813473490625 0 0 0 21.40063509461097,-12.933012701892217 Z M 92.82254509801842,-19.695368911544662 L 92.49396672769686,-18.750892202167023 A 85.19813473490625 85.19813473490625 0 0 1 103.3060873412035,-14.130365135829907 L 101.93963542298187,-11.459633184624693 L 109.76553721371927,-11.387099318513622 L 105.12802323216567,-17.691341070770193 L 103.76157131394405,-15.020609119564979 A 86.19813473490625 86.19813473490625 0 0 0 92.82254509801842,-19.695368911544662"/><text text-anchor="middle" pointer-events="none" font-size="8px" fill="#000000" x="62.3282157679645" y="-20.953857161873515" transform="rotate(180 62.3282157679645 -23.953857161873515)" font-family="sans-serif">PublicTransport</text></g><g class="relationship" transform="translate(-12.298450532450673 -129.80919629434806) rotate(354.61796882534054)"><path class="outline" fill="#A5ABB6" stroke="none" d="M 25 0.5 L 73.57591596650015 0.5 L 73.57591596650015 -0.5 L 25 -0.5 Z M 92.91185346650015 0.5 L 141.4877694330003 0.5 L 141.4877694330003 3.5 L 148.4877694330003 0 L 141.4877694330003 -3.5 L 141.4877694330003 -0.5 L 92.91185346650015 -0.5 Z"/><text text-anchor="middle" pointer-events="none" font-size="8px" fill="#000000" x="83.24388471650015" y="3" font-family="sans-serif">trek</text></g><g class="relationship" transform="translate(-159.1512104986725 -40.73745970999023) rotate(463.94798883139964)"><path class="outline" fill="#A5ABB6" stroke="none" d="M 24.018736134675446,-6.953439040707552 L 24.277555179777966,-5.987513214418485 A 221.71236590248418 221.71236590248418 0 0 1 56.20839379111504,-12.076359349164704 L 56.093593950721115,-13.069747992468791 A 222.71236590248418 222.71236590248418 0 0 0 24.018736134675446,-6.953439040707552 Z M 102.57563046804336,-13.557965378294597 L 102.48172148201462,-12.562384591847263 A 221.71236590248418 221.71236590248418 0 0 1 134.5334081491745,-7.14556970982716 L 133.81798837648103,-4.232122516408471 L 141.450688229267,-5.961831439112197 L 135.48730117943245,-11.030165967718744 L 134.77188140673897,-8.116718774300056 A 222.71236590248418 222.71236590248418 0 0 0 102.57563046804336,-13.557965378294597"/><text text-anchor="middle" pointer-events="none" font-size="8px" fill="#000000" x="79.32709111392863" y="-11.029922609443844" transform="rotate(180 79.32709111392863 -14.029922609443844)" font-family="sans-serif">twowheeler</text></g><g class="relationship" transform="translate(-199.0987934596084 120.10541255716707) rotate(343.9937804636994)"><path class="outline" fill="#A5ABB6" stroke="none" d="M 21.40063509461097,12.933012701892217 L 21.90063509461097,12.06698729810778 A 92.49136667420557 92.49136667420557 0 0 0 43.12578421731358,21.00994526448231 L 42.855266707257385,21.9726603192898 A 93.49136667420557 93.49136667420557 0 0 1 21.40063509461097,12.933012701892217 Z M 89.07207230244825,23.08653284575668 L 88.8482467812784,22.11190361570401 A 92.49136667420557 92.49136667420557 0 0 0 110.47957127293098,14.201830720582699 L 109.10647275476335,11.53450988134985 L 116.93216965083558,11.442487651397007 L 112.31036929715451,17.758258506226497 L 110.93727077898687,15.090937666993646 A 93.49136667420557 93.49136667420557 0 0 1 89.07207230244825,23.08653284575668"/><text text-anchor="middle" pointer-events="none" font-size="8px" fill="#000000" x="65.90578152240366" y="27.93148509990735" font-family="sans-serif">twowheeler</text></g><g class="relationship" transform="translate(-199.0987934596084 120.10541255716707) rotate(343.9937804636994)"><path class="outline" fill="#A5ABB6" stroke="none" d="M 25 0.5 L 55.07406228055464 0.5 L 55.07406228055464 -0.5 L 25 -0.5 Z M 77.08578103055464 0.5 L 107.15984331110928 0.5 L 107.15984331110928 3.5 L 114.15984331110928 0 L 107.15984331110928 -3.5 L 107.15984331110928 -0.5 L 77.08578103055464 -0.5 Z"/><text text-anchor="middle" pointer-events="none" font-size="8px" fill="#000000" x="66.07992165555464" y="3" font-family="sans-serif">road</text></g><g class="relationship" transform="translate(-199.0987934596084 120.10541255716707) rotate(343.9937804636994)"><path class="outline" fill="#A5ABB6" stroke="none" d="M 21.40063509461097,-12.933012701892217 L 21.90063509461097,-12.06698729810778 A 92.49136667420557 92.49136667420557 0 0 1 56.33397631337835,-23.70108538647547 L 56.20626339764273,-24.692896563642933 A 93.49136667420557 93.49136667420557 0 0 0 21.40063509461097,-12.933012701892217 Z M 75.60553185478402,-25.16043887622142 L 75.52574680415935,-24.163626784753404 A 92.49136667420557 92.49136667420557 0 0 1 110.47957127293098,-14.201830720582699 L 109.10647275476335,-11.53450988134985 L 116.93216965083558,-11.442487651397007 L 112.31036929715451,-17.758258506226497 L 110.93727077898687,-15.090937666993646 A 93.49136667420557 93.49136667420557 0 0 0 75.60553185478402,-25.16043887622142"/><text text-anchor="middle" pointer-events="none" font-size="8px" fill="#000000" x="65.90578152240363" y="-21.93148509990735" font-family="sans-serif">trek</text></g><g class="relationship" transform="translate(-159.1512104986725 -40.73745970999023) rotate(463.94798883139964)"><path class="outline" fill="#A5ABB6" stroke="none" d="M 24.018736134675446,6.953439040707552 L 24.277555179777966,5.987513214418485 A 221.71236590248418 221.71236590248418 0 0 0 69.69190608302817,13.218872035536322 L 69.63792157982587,14.217413809031058 A 222.71236590248418 222.71236590248418 0 0 1 24.018736134675446,6.953439040707552 Z M 89.01018491672264,14.420887591001502 L 88.97718608939276,13.421432200603903 A 221.71236590248418 221.71236590248418 0 0 0 134.5334081491745,7.14556970982716 L 133.81798837648103,4.232122516408471 L 141.450688229267,5.961831439112197 L 135.48730117943245,11.030165967718744 L 134.77188140673897,8.116718774300056 A 222.71236590248418 222.71236590248418 0 0 1 89.01018491672264,14.420887591001502"/><text text-anchor="middle" pointer-events="none" font-size="8px" fill="#000000" x="79.32709111392874" y="17.029922609443844" transform="rotate(180 79.32709111392874 14.029922609443844)" font-family="sans-serif">trek</text></g><g class="relationship" transform="translate(-199.0987934596084 120.10541255716707) rotate(389.1328822178418)"><path class="outline" fill="#A5ABB6" stroke="none" d="M 25 0.5 L 68.43177993814801 0.5 L 68.43177993814801 -0.5 L 25 -0.5 Z M 87.76771743814801 0.5 L 131.19949737629602 0.5 L 131.19949737629602 3.5 L 138.19949737629602 0 L 131.19949737629602 -3.5 L 131.19949737629602 -0.5 L 87.76771743814801 -0.5 Z"/><text text-anchor="middle" pointer-events="none" font-size="8px" fill="#000000" x="78.09974868814801" y="3" font-family="sans-serif">trek</text></g><g class="relationship" transform="translate(-56.54517982026492 199.55692722013893) rotate(332.252368342703)"><path class="outline" fill="#A5ABB6" stroke="none" d="M 25 0.5 L 67.89706917237567 0.5 L 67.89706917237567 -0.5 L 25 -0.5 Z M 87.23300667237567 0.5 L 130.13007584475133 0.5 L 130.13007584475133 3.5 L 137.13007584475133 0 L 130.13007584475133 -3.5 L 130.13007584475133 -0.5 L 87.23300667237567 -0.5 Z"/><text text-anchor="middle" pointer-events="none" font-size="8px" fill="#000000" x="77.56503792237567" y="3" font-family="sans-serif">trek</text></g></g><g class="layer nodes"><g class="node" aria-label="graph-node1" transform="translate(52.866559794396984,-14.990931134458982)"><circle class="outline" cx="0" cy="0" r="25" fill="#57C7E3" stroke="#23b3d7" stroke-width="2px"/><text class="caption" text-anchor="middle" pointer-events="none" x="0" y="5" font-size="10px" fill="#2A2C34" font-family="sans-serif"> Darjeeling</text></g><g class="node" aria-label="graph-node3" transform="translate(86.94105325324647,124.07274071860216)"><circle class="outline" cx="0" cy="0" r="25" fill="#D9C8AE" stroke="#c0a378" stroke-width="2px"/><text class="caption" text-anchor="middle" pointer-events="none" x="0" y="5" font-size="10px" fill="#2A2C34" font-family="sans-serif"> Sandakp…</text></g><g class="node" aria-label="graph-node5" transform="translate(-65.33393103620135,81.73324072366948)"><circle class="outline" cx="0" cy="0" r="25" fill="#F16667" stroke="#eb2728" stroke-width="2px"/><text class="caption" text-anchor="middle" pointer-events="none" x="0" y="5" font-size="10px" fill="#FFFFFF" font-family="sans-serif"> Gurdum</text></g><g class="node" aria-label="graph-node6" transform="translate(160.4244858273276,-146.08166992603245)"><circle class="outline" cx="0" cy="0" r="25" fill="#F16667" stroke="#eb2728" stroke-width="2px"/><text class="caption" text-anchor="middle" pointer-events="none" x="0" y="5" font-size="10px" fill="#FFFFFF" font-family="sans-serif"> Tumbling</text></g><g class="node" aria-label="graph-node7" transform="translate(57.064318246339575,-203.44070832415787)"><circle class="outline" cx="0" cy="0" r="25" fill="#F16667" stroke="#eb2728" stroke-width="2px"/><text class="caption" text-anchor="middle" pointer-events="none" x="0" y="5" font-size="10px" fill="#FFFFFF" font-family="sans-serif"> Gairibus</text></g><g class="node" aria-label="graph-node2" transform="translate(146.3271587825406,-47.58465068001827)"><circle class="outline" cx="0" cy="0" r="25" fill="#F16667" stroke="#eb2728" stroke-width="2px"/><text class="caption" text-anchor="middle" pointer-events="none" x="0" y="5" font-size="10px" fill="#FFFFFF" font-family="sans-serif"> BhikeBh…</text></g><g class="node" aria-label="graph-node0" transform="translate(-12.298450532450673,-129.80919629434806)"><circle class="outline" cx="0" cy="0" r="25" fill="#57C7E3" stroke="#23b3d7" stroke-width="2px"/><text class="caption" text-anchor="middle" pointer-events="none" x="0" y="5" font-size="10px" fill="#2A2C34" font-family="sans-serif"> Rimbik</text></g><g class="node" aria-label="graph-node4" transform="translate(-159.1512104986725,-40.73745970999023)"><circle class="outline" cx="0" cy="0" r="25" fill="#F16667" stroke="#eb2728" stroke-width="2px"/><text class="caption" text-anchor="middle" pointer-events="none" x="0" y="5" font-size="10px" fill="#FFFFFF" font-family="sans-serif"> Sirikhola</text></g><g class="node" aria-label="graph-node8" transform="translate(-199.0987934596084,120.10541255716707)"><circle class="outline" cx="0" cy="0" r="25" fill="#F16667" stroke="#eb2728" stroke-width="2px"/><text class="caption" text-anchor="middle" pointer-events="none" x="0" y="5" font-size="10px" fill="#FFFFFF" font-family="sans-serif"> Rammam</text></g><g class="node" aria-label="graph-node9" transform="translate(-56.54517982026492,199.55692722013893)"><circle class="outline" cx="0" cy="0" r="25" fill="#D9C8AE" stroke="#c0a378" stroke-width="2px"/><text class="caption" text-anchor="middle" pointer-events="none" x="0" y="5" font-size="10px" fill="#2A2C34" font-family="sans-serif"> Sabargr…</text></g></g></svg>