<svg xmlns="http://www.w3.org/2000/svg" width="723.965576171875" height="752.648193359375" viewBox="-518.0100708007812 -279.5592041015625 723.965576171875 752.648193359375"><title>Neo4j Graph Visualization</title><desc>Created using Neo4j (http://www.neo4j.com/)</desc><g class="layer relationships"><g class="relationship" transform="translate(-23.318401115432643 81.41930656648965) rotate(528.2360614621894)"><path class="outline" fill="#A5ABB6" stroke="none" d="M 25 0.5 L 109.22090675187516 0.5 L 109.22090675187516 -0.5 L 25 -0.5 Z M 143.66621925187516 0.5 L 227.88712600375032 0.5 L 227.88712600375032 3.5 L 234.88712600375032 0 L 227.88712600375032 -3.5 L 227.88712600375032 -0.5 L 143.66621925187516 -0.5 Z"/><text text-anchor="middle" pointer-events="none" font-size="8px" fill="#000000" x="126.44356300187516" y="3" transform="rotate(180 126.44356300187516 0)" font-family="sans-serif">ORIGIN</text></g><g class="relationship" transform="translate(-23.318401115432643 81.41930656648965) rotate(519.2165585315893)"><path class="outline" fill="#A5ABB6" stroke="none" d="M 25 0.5 L 50.994157812930766 0.5 L 50.994157812930766 -0.5 L 25 -0.5 Z M 110.18165781293077 0.5 L 136.17581562586153 0.5 L 136.17581562586153 3.5 L 143.17581562586153 0 L 136.17581562586153 -3.5 L 136.17581562586153 -0.5 L 110.18165781293077 -0.5 Z"/><text text-anchor="middle" pointer-events="none" font-size="8px" fill="#000000" x="80.58790781293077" y="3" transform="rotate(180 80.58790781293077 0)" font-family="sans-serif">DESTINATION</text></g><g class="relationship" transform="translate(10.793145133376397 172.99653413843637) rotate(187.61794984589812)"><path class="outline" fill="#A5ABB6" stroke="none" d="M 25 0.5 L 124.8319895503673 0.5 L 124.8319895503673 -0.5 L 25 -0.5 Z M 159.2773020503673 0.5 L 259.1092916007346 0.5 L 259.1092916007346 3.5 L 266.1092916007346 0 L 259.1092916007346 -3.5 L 259.1092916007346 -0.5 L 159.2773020503673 -0.5 Z"/><text text-anchor="middle" pointer-events="none" font-size="8px" fill="#000000" x="142.0546458003673" y="3" transform="rotate(180 142.0546458003673 0)" font-family="sans-serif">ORIGIN</text></g><g class="relationship" transform="translate(10.793145133376397 172.99653413843637) rotate(349.61383802744876)"><path class="outline" fill="#A5ABB6" stroke="none" d="M 25 0.5 L 51.37139097507459 0.5 L 51.37139097507459 -0.5 L 25 -0.5 Z M 110.55889097507459 0.5 L 136.93028195014918 0.5 L 136.93028195014918 3.5 L 143.93028195014918 0 L 136.93028195014918 -3.5 L 136.93028195014918 -0.5 L 110.55889097507459 -0.5 Z"/><text text-anchor="middle" pointer-events="none" font-size="8px" fill="#000000" x="80.96514097507459" y="3" font-family="sans-serif">DESTINATION</text></g><g class="relationship" transform="translate(-119.51531633209166 64.47106341771877) rotate(516.1558800901773)"><path class="outline" fill="#A5ABB6" stroke="none" d="M 25 0.5 L 65.77586757819982 0.5 L 65.77586757819982 -0.5 L 25 -0.5 Z M 100.22118007819982 0.5 L 140.99704765639964 0.5 L 140.99704765639964 3.5 L 147.99704765639964 0 L 140.99704765639964 -3.5 L 140.99704765639964 -0.5 L 100.22118007819982 -0.5 Z"/><text text-anchor="middle" pointer-events="none" font-size="8px" fill="#000000" x="82.99852382819982" y="3" transform="rotate(180 82.99852382819982 0)" font-family="sans-serif">ORIGIN</text></g><g class="relationship" transform="translate(-119.51531633209166 64.47106341771877) rotate(429.9087106625351)"><path class="outline" fill="#A5ABB6" stroke="none" d="M 25 0.5 L 26.389470027908345 0.5 L 26.389470027908345 -0.5 L 25 -0.5 Z M 63.948063777908345 0.5 L 65.33753380581669 0.5 L 65.33753380581669 3.5 L 72.33753380581669 0 L 65.33753380581669 -3.5 L 65.33753380581669 -0.5 L 63.948063777908345 -0.5 Z"/><text text-anchor="middle" pointer-events="none" font-size="8px" fill="#000000" x="45.168766902908345" y="3" font-family="sans-serif">DESTI…</text></g><g class="relationship" transform="translate(-152.79509640458534 -27.981105786351552) rotate(487.57730064190457)"><path class="outline" fill="#A5ABB6" stroke="none" d="M 25 0.5 L 81.72514452912556 0.5 L 81.72514452912556 -0.5 L 25 -0.5 Z M 116.17045702912556 0.5 L 172.89560155825112 0.5 L 172.89560155825112 3.5 L 179.89560155825112 0 L 172.89560155825112 -3.5 L 172.89560155825112 -0.5 L 116.17045702912556 -0.5 Z"/><text text-anchor="middle" pointer-events="none" font-size="8px" fill="#000000" x="98.94780077912556" y="3" transform="rotate(180 98.94780077912556 0)" font-family="sans-serif">ORIGIN</text></g><g class="relationship" transform="translate(-152.79509640458534 -27.981105786351552) rotate(430.056433449855)"><path class="outline" fill="#A5ABB6" stroke="none" d="M 25 0.5 L 64.70449072933398 0.5 L 64.70449072933398 -0.5 L 25 -0.5 Z M 123.89199072933398 0.5 L 163.59648145866797 0.5 L 163.59648145866797 3.5 L 170.59648145866797 0 L 163.59648145866797 -3.5 L 163.59648145866797 -0.5 L 123.89199072933398 -0.5 Z"/><text text-anchor="middle" pointer-events="none" font-size="8px" fill="#000000" x="94.29824072933398" y="3" font-family="sans-serif">DESTINATION</text></g><g class="relationship" transform="translate(-57.15544482034444 -11.202388129568842) rotate(506.5720868871415)"><path class="outline" fill="#A5ABB6" stroke="none" d="M 25 0.5 L 111.43453538848138 0.5 L 111.43453538848138 -0.5 L 25 -0.5 Z M 145.87984788848138 0.5 L 232.31438327696276 0.5 L 232.31438327696276 3.5 L 239.31438327696276 0 L 232.31438327696276 -3.5 L 232.31438327696276 -0.5 L 145.87984788848138 -0.5 Z"/><text text-anchor="middle" pointer-events="none" font-size="8px" fill="#000000" x="128.65719163848138" y="3" transform="rotate(180 128.65719163848138 0)" font-family="sans-serif">ORIGIN</text></g><g class="relationship" transform="translate(-57.15544482034444 -11.202388129568842) rotate(459.820553978864)"><path class="outline" fill="#A5ABB6" stroke="none" d="M 25 0.5 L 51.69246881062794 0.5 L 51.69246881062794 -0.5 L 25 -0.5 Z M 110.87996881062794 0.5 L 137.5724376212559 0.5 L 137.5724376212559 3.5 L 144.5724376212559 0 L 137.5724376212559 -3.5 L 137.5724376212559 -0.5 L 110.87996881062794 -0.5 Z"/><text text-anchor="middle" pointer-events="none" font-size="8px" fill="#000000" x="81.28621881062794" y="3" transform="rotate(180 81.28621881062794 0)" font-family="sans-serif">DESTINATION</text></g><g class="relationship" transform="translate(-216.53733394855223 44.34343750641928) rotate(484.20159898730026)"><path class="outline" fill="#A5ABB6" stroke="none" d="M 25 0.5 L 33.723879375137194 0.5 L 33.723879375137194 -0.5 L 25 -0.5 Z M 68.16919187513719 0.5 L 76.89307125027439 0.5 L 76.89307125027439 3.5 L 83.89307125027439 0 L 76.89307125027439 -3.5 L 76.89307125027439 -0.5 L 68.16919187513719 -0.5 Z"/><text text-anchor="middle" pointer-events="none" font-size="8px" fill="#000000" x="50.946535625137194" y="3" transform="rotate(180 50.946535625137194 0)" font-family="sans-serif">ORIGIN</text></g><g class="relationship" transform="translate(-216.53733394855223 44.34343750641928) rotate(400.53026289860946)"><path class="outline" fill="#A5ABB6" stroke="none" d="M 25 0.5 L 52.7275153091704 0.5 L 52.7275153091704 -0.5 L 25 -0.5 Z M 111.9150153091704 0.5 L 139.6425306183408 0.5 L 139.6425306183408 3.5 L 146.6425306183408 0 L 139.6425306183408 -3.5 L 139.6425306183408 -0.5 L 111.9150153091704 -0.5 Z"/><text text-anchor="middle" pointer-events="none" font-size="8px" fill="#000000" x="82.3212653091704" y="3" font-family="sans-serif">DESTINATION</text></g><g class="relationship" transform="translate(-188.07678024601844 -120.39336100908004) rotate(469.38826768147715)"><path class="outline" fill="#A5ABB6" stroke="none" d="M 25 0.5 L 114.33562783395408 0.5 L 114.33562783395408 -0.5 L 25 -0.5 Z M 148.78094033395408 0.5 L 238.11656816790816 0.5 L 238.11656816790816 3.5 L 245.11656816790816 0 L 238.11656816790816 -3.5 L 238.11656816790816 -0.5 L 148.78094033395408 -0.5 Z"/><text text-anchor="middle" pointer-events="none" font-size="8px" fill="#000000" x="131.55828408395408" y="3" transform="rotate(180 131.55828408395408 0)" font-family="sans-serif">ORIGIN</text></g><g class="relationship" transform="translate(-188.07678024601844 -120.39336100908004) rotate(307.7979293032249)"><path class="outline" fill="#A5ABB6" stroke="none" d="M 25 0.5 L 49.27122179672784 0.5 L 49.27122179672784 -0.5 L 25 -0.5 Z M 108.45872179672784 0.5 L 132.7299435934557 0.5 L 132.7299435934557 3.5 L 139.7299435934557 0 L 132.7299435934557 -3.5 L 132.7299435934557 -0.5 L 108.45872179672784 -0.5 Z"/><text text-anchor="middle" pointer-events="none" font-size="8px" fill="#000000" x="78.86497179672784" y="3" font-family="sans-serif">DESTINATION</text></g><g class="relationship" transform="translate(-326.9708183264634 15.754637206555401) rotate(427.4681189108767)"><path class="outline" fill="#A5ABB6" stroke="none" d="M 25 0.5 L 43.50531026770953 0.5 L 43.50531026770953 -0.5 L 25 -0.5 Z M 77.95062276770953 0.5 L 96.45593303541906 0.5 L 96.45593303541906 3.5 L 103.45593303541906 0 L 96.45593303541906 -3.5 L 96.45593303541906 -0.5 L 77.95062276770953 -0.5 Z"/><text text-anchor="middle" pointer-events="none" font-size="8px" fill="#000000" x="60.72796651770953" y="3" font-family="sans-serif">ORIGIN</text></g><g class="relationship" transform="translate(-326.9708183264634 15.754637206555401) rotate(210.88472201998445)"><path class="outline" fill="#A5ABB6" stroke="none" d="M 25 0.5 L 58.909241678488215 0.5 L 58.909241678488215 -0.5 L 25 -0.5 Z M 118.09674167848821 0.5 L 152.00598335697643 0.5 L 152.00598335697643 3.5 L 159.00598335697643 0 L 152.00598335697643 -3.5 L 152.00598335697643 -0.5 L 118.09674167848821 -0.5 Z"/><text text-anchor="middle" pointer-events="none" font-size="8px" fill="#000000" x="88.50299167848821" y="3" transform="rotate(180 88.50299167848821 0)" font-family="sans-serif">DESTINATION</text></g><g class="relationship" transform="translate(-265.31542073041237 -60.2099063405055) rotate(453.6549142221381)"><path class="outline" fill="#A5ABB6" stroke="none" d="M 25 0.5 L 76.78315162677302 0.5 L 76.78315162677302 -0.5 L 25 -0.5 Z M 111.22846412677302 0.5 L 163.01161575354604 0.5 L 163.01161575354604 3.5 L 170.01161575354604 0 L 163.01161575354604 -3.5 L 163.01161575354604 -0.5 L 111.22846412677302 -0.5 Z"/><text text-anchor="middle" pointer-events="none" font-size="8px" fill="#000000" x="94.00580787677302" y="3" transform="rotate(180 94.00580787677302 0)" font-family="sans-serif">ORIGIN</text></g><g class="relationship" transform="translate(-265.31542073041237 -60.2099063405055) rotate(184.81301654987885)"><path class="outline" fill="#A5ABB6" stroke="none" d="M 25 0.5 L 77.07957351124567 0.5 L 77.07957351124567 -0.5 L 25 -0.5 Z M 136.26707351124566 0.5 L 188.34664702249134 0.5 L 188.34664702249134 3.5 L 195.34664702249134 0 L 188.34664702249134 -3.5 L 188.34664702249134 -0.5 L 136.26707351124566 -0.5 Z"/><text text-anchor="middle" pointer-events="none" font-size="8px" fill="#000000" x="106.67332351124567" y="3" transform="rotate(180 106.67332351124567 0)" font-family="sans-serif">DESTINATION</text></g><g class="relationship" transform="translate(-360.78998663570525 -77.12767686655249) rotate(428.566108582274)"><path class="outline" fill="#A5ABB6" stroke="none" d="M 25 0.5 L 92.90202172901402 0.5 L 92.90202172901402 -0.5 L 25 -0.5 Z M 127.34733422901402 0.5 L 195.24935595802805 0.5 L 195.24935595802805 3.5 L 202.24935595802805 0 L 195.24935595802805 -3.5 L 195.24935595802805 -0.5 L 127.34733422901402 -0.5 Z"/><text text-anchor="middle" pointer-events="none" font-size="8px" fill="#000000" x="110.12467797901402" y="3" font-family="sans-serif">ORIGIN</text></g><g class="relationship" transform="translate(-360.78998663570525 -77.12767686655249) rotate(180.72495669341617)"><path class="outline" fill="#A5ABB6" stroke="none" d="M 25 0.5 L 28.958767065417838 0.5 L 28.958767065417838 -0.5 L 25 -0.5 Z M 88.14626706541785 0.5 L 92.10503413083568 0.5 L 92.10503413083568 3.5 L 99.10503413083568 0 L 92.10503413083568 -3.5 L 92.10503413083568 -0.5 L 88.14626706541785 -0.5 Z"/><text text-anchor="middle" pointer-events="none" font-size="8px" fill="#000000" x="58.55251706541784" y="3" transform="rotate(180 58.55251706541784 0)" font-family="sans-serif">DESTINATION</text></g><g class="relationship" transform="translate(-391.6042079533764 90.20080952692297) rotate(381.2183247309041)"><path class="outline" fill="#A5ABB6" stroke="none" d="M 25 0.5 L 40.34599125460135 0.5 L 40.34599125460135 -0.5 L 25 -0.5 Z M 74.79130375460136 0.5 L 90.1372950092027 0.5 L 90.1372950092027 3.5 L 97.1372950092027 0 L 90.1372950092027 -3.5 L 90.1372950092027 -0.5 L 74.79130375460136 -0.5 Z"/><text text-anchor="middle" pointer-events="none" font-size="8px" fill="#000000" x="57.56864750460135" y="3" font-family="sans-serif">ORIGIN</text></g><g class="relationship" transform="translate(-391.6042079533764 90.20080952692297) rotate(241.08862102601557)"><path class="outline" fill="#A5ABB6" stroke="none" d="M 25 0.5 L 63.37917828341118 0.5 L 63.37917828341118 -0.5 L 25 -0.5 Z M 122.56667828341118 0.5 L 160.94585656682236 0.5 L 160.94585656682236 3.5 L 167.94585656682236 0 L 160.94585656682236 -3.5 L 160.94585656682236 -0.5 L 122.56667828341118 -0.5 Z"/><text text-anchor="middle" pointer-events="none" font-size="8px" fill="#000000" x="92.97292828341118" y="3" transform="rotate(180 92.97292828341118 0)" font-family="sans-serif">DESTINATION</text></g><g class="relationship" transform="translate(-423.0746728207 -1.381479129583724) rotate(403.0560734044964)"><path class="outline" fill="#A5ABB6" stroke="none" d="M 25 0.5 L 78.72352130433651 0.5 L 78.72352130433651 -0.5 L 25 -0.5 Z M 113.16883380433651 0.5 L 166.89235510867303 0.5 L 166.89235510867303 3.5 L 173.89235510867303 0 L 166.89235510867303 -3.5 L 166.89235510867303 -0.5 L 113.16883380433651 -0.5 Z"/><text text-anchor="middle" pointer-events="none" font-size="8px" fill="#000000" x="95.94617755433651" y="3" font-family="sans-serif">ORIGIN</text></g><g class="relationship" transform="translate(-423.0746728207 -1.381479129583724) rotate(231.35950954946583)"><path class="outline" fill="#A5ABB6" stroke="none" d="M 25 0.5 L 27.214034663063096 0.5 L 27.214034663063096 -0.5 L 25 -0.5 Z M 64.7726284130631 0.5 L 66.98666307612619 0.5 L 66.98666307612619 3.5 L 73.98666307612619 0 L 66.98666307612619 -3.5 L 66.98666307612619 -0.5 L 64.7726284130631 -0.5 Z"/><text text-anchor="middle" pointer-events="none" font-size="8px" fill="#000000" x="45.993331538063096" y="3" transform="rotate(180 45.993331538063096 0)" font-family="sans-serif">DESTI…</text></g><g class="relationship" transform="translate(-456.76626427457825 163.55328200574147) rotate(350.75216910750055)"><path class="outline" fill="#A5ABB6" stroke="none" d="M 25 0.5 L 69.96578700456115 0.5 L 69.96578700456115 -0.5 L 25 -0.5 Z M 104.41109950456115 0.5 L 149.3768865091223 0.5 L 149.3768865091223 3.5 L 156.3768865091223 0 L 149.3768865091223 -3.5 L 149.3768865091223 -0.5 L 104.41109950456115 -0.5 Z"/><text text-anchor="middle" pointer-events="none" font-size="8px" fill="#000000" x="87.18844325456115" y="3" font-family="sans-serif">ORIGIN</text></g><g class="relationship" transform="translate(-456.76626427457825 163.55328200574147) rotate(263.37913545429956)"><path class="outline" fill="#A5ABB6" stroke="none" d="M 25 0.5 L 88.8450806020858 0.5 L 88.8450806020858 -0.5 L 25 -0.5 Z M 148.0325806020858 0.5 L 211.8776612041716 0.5 L 211.8776612041716 3.5 L 218.8776612041716 0 L 211.8776612041716 -3.5 L 211.8776612041716 -0.5 L 148.0325806020858 -0.5 Z"/><text text-anchor="middle" pointer-events="none" font-size="8px" fill="#000000" x="118.4388306020858" y="3" transform="rotate(180 118.4388306020858 0)" font-family="sans-serif">DESTINATION</text></g><g class="relationship" transform="translate(-489.01008593637766 71.72714918870214) rotate(376.5246548455296)"><path class="outline" fill="#A5ABB6" stroke="none" d="M 25 0.5 L 89.45978828583267 0.5 L 89.45978828583267 -0.5 L 25 -0.5 Z M 123.90510078583267 0.5 L 188.36488907166535 0.5 L 188.36488907166535 3.5 L 195.36488907166535 0 L 188.36488907166535 -3.5 L 188.36488907166535 -0.5 L 123.90510078583267 -0.5 Z"/><text text-anchor="middle" pointer-events="none" font-size="8px" fill="#000000" x="106.68244453583267" y="3" font-family="sans-serif">ORIGIN</text></g><g class="relationship" transform="translate(-489.01008593637766 71.72714918870214) rotate(271.5707876187035)"><path class="outline" fill="#A5ABB6" stroke="none" d="M 25 0.5 L 42.14705912096723 0.5 L 42.14705912096723 -0.5 L 25 -0.5 Z M 101.33455912096723 0.5 L 118.48161824193446 0.5 L 118.48161824193446 3.5 L 125.48161824193446 0 L 118.48161824193446 -3.5 L 118.48161824193446 -0.5 L 101.33455912096723 -0.5 Z"/><text text-anchor="middle" pointer-events="none" font-size="8px" fill="#000000" x="71.74080912096723" y="3" font-family="sans-serif">DESTINATION</text></g><g class="relationship" transform="translate(-213.17675760389736 329.12052429582144) rotate(251.65383442268188)"><path class="outline" fill="#A5ABB6" stroke="none" d="M 25 0.5 L 81.84854033796996 0.5 L 81.84854033796996 -0.5 L 25 -0.5 Z M 116.29385283796996 0.5 L 173.14239317593993 0.5 L 173.14239317593993 3.5 L 180.14239317593993 0 L 173.14239317593993 -3.5 L 173.14239317593993 -0.5 L 116.29385283796996 -0.5 Z"/><text text-anchor="middle" pointer-events="none" font-size="8px" fill="#000000" x="99.07119658796996" y="3" transform="rotate(180 99.07119658796996 0)" font-family="sans-serif">ORIGIN</text></g><g class="relationship" transform="translate(-213.17675760389736 329.12052429582144) rotate(428.6716047618689)"><path class="outline" fill="#A5ABB6" stroke="none" d="M 25 0.5 L 28.616970938641558 0.5 L 28.616970938641558 -0.5 L 25 -0.5 Z M 87.80447093864156 0.5 L 91.42144187728312 0.5 L 91.42144187728312 3.5 L 98.42144187728312 0 L 91.42144187728312 -3.5 L 91.42144187728312 -0.5 L 87.80447093864156 -0.5 Z"/><text text-anchor="middle" pointer-events="none" font-size="8px" fill="#000000" x="58.21072093864156" y="3" font-family="sans-serif">DESTINATION</text></g><g class="relationship" transform="translate(-291.2155583934101 270.2006829797531) rotate(275.6642880707087)"><path class="outline" fill="#A5ABB6" stroke="none" d="M 25 0.5 L 47.50830116268473 0.5 L 47.50830116268473 -0.5 L 25 -0.5 Z M 81.95361366268473 0.5 L 104.46191482536946 0.5 L 104.46191482536946 3.5 L 111.46191482536946 0 L 104.46191482536946 -3.5 L 104.46191482536946 -0.5 L 81.95361366268473 -0.5 Z"/><text text-anchor="middle" pointer-events="none" font-size="8px" fill="#000000" x="64.73095741268473" y="3" font-family="sans-serif">ORIGIN</text></g><g class="relationship" transform="translate(-291.2155583934101 270.2006829797531) rotate(414.74193935344795)"><path class="outline" fill="#A5ABB6" stroke="none" d="M 25 0.5 L 73.38232538559356 0.5 L 73.38232538559356 -0.5 L 25 -0.5 Z M 132.56982538559356 0.5 L 180.95215077118712 0.5 L 180.95215077118712 3.5 L 187.95215077118712 0 L 180.95215077118712 -3.5 L 180.95215077118712 -0.5 L 132.56982538559356 -0.5 Z"/><text text-anchor="middle" pointer-events="none" font-size="8px" fill="#000000" x="102.97607538559356" y="3" font-family="sans-serif">DESTINATION</text></g><g class="relationship" transform="translate(-159.7278264823948 246.3277320042728) rotate(223.48129667413332)"><path class="outline" fill="#A5ABB6" stroke="none" d="M 25 0.5 L 60.60256642377415 0.5 L 60.60256642377415 -0.5 L 25 -0.5 Z M 95.04787892377415 0.5 L 130.6504453475483 0.5 L 130.6504453475483 3.5 L 137.6504453475483 0 L 130.6504453475483 -3.5 L 130.6504453475483 -0.5 L 95.04787892377415 -0.5 Z"/><text text-anchor="middle" pointer-events="none" font-size="8px" fill="#000000" x="77.82522267377415" y="3" transform="rotate(180 77.82522267377415 0)" font-family="sans-serif">ORIGIN</text></g><g class="relationship" transform="translate(-159.7278264823948 246.3277320042728) rotate(452.478171808035)"><path class="outline" fill="#A5ABB6" stroke="none" d="M 25 0.5 L 65.87943002374715 0.5 L 65.87943002374715 -0.5 L 25 -0.5 Z M 125.06693002374715 0.5 L 165.9463600474943 0.5 L 165.9463600474943 3.5 L 172.9463600474943 0 L 165.9463600474943 -3.5 L 165.9463600474943 -0.5 L 125.06693002374715 -0.5 Z"/><text text-anchor="middle" pointer-events="none" font-size="8px" fill="#000000" x="95.47318002374715" y="3" transform="rotate(180 95.47318002374715 0)" font-family="sans-serif">DESTINATION</text></g><g class="relationship" transform="translate(-305.15095805936414 366.2048714341373) rotate(276.74239722626885)"><path class="outline" fill="#A5ABB6" stroke="none" d="M 25 0.5 L 95.98438352487868 0.5 L 95.98438352487868 -0.5 L 25 -0.5 Z M 130.4296960248787 0.5 L 201.41407954975736 0.5 L 201.41407954975736 3.5 L 208.41407954975736 0 L 201.41407954975736 -3.5 L 201.41407954975736 -0.5 L 130.4296960248787 -0.5 Z"/><text text-anchor="middle" pointer-events="none" font-size="8px" fill="#000000" x="113.20703977487868" y="3" font-family="sans-serif">ORIGIN</text></g><g class="relationship" transform="translate(-305.15095805936414 366.2048714341373) rotate(389.64252618313526)"><path class="outline" fill="#A5ABB6" stroke="none" d="M 25 0.5 L 45.64273182506682 0.5 L 45.64273182506682 -0.5 L 25 -0.5 Z M 104.83023182506682 0.5 L 125.47296365013364 0.5 L 125.47296365013364 3.5 L 132.47296365013364 0 L 125.47296365013364 -3.5 L 125.47296365013364 -0.5 L 104.83023182506682 -0.5 Z"/><text text-anchor="middle" pointer-events="none" font-size="8px" fill="#000000" x="75.23648182506682" y="3" font-family="sans-serif">DESTINATION</text></g><g class="relationship" transform="translate(-60.2846390023298 250.44027961564387) rotate(208.08384358379578)"><path class="outline" fill="#A5ABB6" stroke="none" d="M 25 0.5 L 102.5189507690701 0.5 L 102.5189507690701 -0.5 L 25 -0.5 Z M 136.9642632690701 0.5 L 214.4832140381402 0.5 L 214.4832140381402 3.5 L 221.4832140381402 0 L 214.4832140381402 -3.5 L 214.4832140381402 -0.5 L 136.9642632690701 -0.5 Z"/><text text-anchor="middle" pointer-events="none" font-size="8px" fill="#000000" x="119.7416070190701" y="3" transform="rotate(180 119.7416070190701 0)" font-family="sans-serif">ORIGIN</text></g><g class="relationship" transform="translate(-60.2846390023298 250.44027961564387) rotate(394.63318970279937)"><path class="outline" fill="#A5ABB6" stroke="none" d="M 25 0.5 L 52.565092097377985 0.5 L 52.565092097377985 -0.5 L 25 -0.5 Z M 111.75259209737798 0.5 L 139.31768419475597 0.5 L 139.31768419475597 3.5 L 146.31768419475597 0 L 139.31768419475597 -3.5 L 139.31768419475597 -0.5 L 111.75259209737798 -0.5 Z"/><text text-anchor="middle" pointer-events="none" font-size="8px" fill="#000000" x="82.15884209737798" y="3" font-family="sans-serif">DESTINATION</text></g><g class="relationship" transform="translate(-114.32783088504222 332.96963382595857) rotate(230.54555621689786)"><path class="outline" fill="#A5ABB6" stroke="none" d="M 25 0.5 L 107.8596664783752 0.5 L 107.8596664783752 -0.5 L 25 -0.5 Z M 142.3049789783752 0.5 L 225.1646454567504 0.5 L 225.1646454567504 3.5 L 232.1646454567504 0 L 225.1646454567504 -3.5 L 225.1646454567504 -0.5 L 142.3049789783752 -0.5 Z"/><text text-anchor="middle" pointer-events="none" font-size="8px" fill="#000000" x="125.0823227283752" y="3" transform="rotate(180 125.0823227283752 0)" font-family="sans-serif">ORIGIN</text></g><g class="relationship" transform="translate(-114.32783088504222 332.96963382595857) rotate(364.35010902588544)"><path class="outline" fill="#A5ABB6" stroke="none" d="M 25 0.5 L 64.69026449066058 0.5 L 64.69026449066058 -0.5 L 25 -0.5 Z M 123.87776449066058 0.5 L 163.56802898132116 0.5 L 163.56802898132116 3.5 L 170.56802898132116 0 L 163.56802898132116 -3.5 L 163.56802898132116 -0.5 L 123.87776449066058 -0.5 Z"/><text text-anchor="middle" pointer-events="none" font-size="8px" fill="#000000" x="94.28401449066058" y="3" font-family="sans-serif">DESTINATION</text></g></g><g class="layer nodes"><g class="node" aria-label="graph-node1" transform="translate(-180.55072439562835,141.0942718143706)"><circle class="outline" cx="0" cy="0" r="25" fill="#ECB5C9" stroke="#da7298" stroke-width="2px"/><text class="caption" text-anchor="middle" pointer-events="none" x="0" y="5" font-size="10px" fill="#2A2C34" font-family="sans-serif"> EWR</text></g><g class="node" aria-label="graph-node2" transform="translate(176.95551133235477,142.54151453717031)"><circle class="outline" cx="0" cy="0" r="25" fill="#ECB5C9" stroke="#da7298" stroke-width="2px"/><text class="caption" text-anchor="middle" pointer-events="none" x="0" y="5" font-size="10px" fill="#2A2C34" font-family="sans-serif"> IAH</text></g><g class="node" aria-label="graph-node13" transform="translate(-86.0782264838277,155.8852664163646)"><circle class="outline" cx="0" cy="0" r="25" fill="#ECB5C9" stroke="#da7298" stroke-width="2px"/><text class="caption" text-anchor="middle" pointer-events="none" x="0" y="5" font-size="10px" fill="#2A2C34" font-family="sans-serif"> SMF</text></g><g class="node" aria-label="graph-node25" transform="translate(-87.11734005926371,-250.55920043509914)"><circle class="outline" cx="0" cy="0" r="25" fill="#ECB5C9" stroke="#da7298" stroke-width="2px"/><text class="caption" text-anchor="middle" pointer-events="none" x="0" y="5" font-size="10px" fill="#2A2C34" font-family="sans-serif"> LAS</text></g><g class="node" aria-label="graph-node40" transform="translate(-484.88508657631695,-78.6979212250783)"><circle class="outline" cx="0" cy="0" r="25" fill="#ECB5C9" stroke="#da7298" stroke-width="2px"/><text class="caption" text-anchor="middle" pointer-events="none" x="0" y="5" font-size="10px" fill="#2A2C34" font-family="sans-serif"> ABQ</text></g><g class="node" aria-label="graph-node41" transform="translate(-168.28678420911552,444.0889660686982)"><circle class="outline" cx="0" cy="0" r="25" fill="#ECB5C9" stroke="#da7298" stroke-width="2px"/><text class="caption" text-anchor="middle" pointer-events="none" x="0" y="5" font-size="10px" fill="#2A2C34" font-family="sans-serif"> FAT</text></g><g class="node" aria-label="graph-node42" transform="translate(80.67680145875788,347.803626009394)"><circle class="outline" cx="0" cy="0" r="25" fill="#ECB5C9" stroke="#da7298" stroke-width="2px"/><text class="caption" text-anchor="middle" pointer-events="none" x="0" y="5" font-size="10px" fill="#2A2C34" font-family="sans-serif"> TUS</text></g><g class="node" aria-label="graph-node5" transform="translate(-277.74683268891755,134.40507323590484)"><circle class="outline" cx="0" cy="0" r="25" fill="#ECB5C9" stroke="#da7298" stroke-width="2px"/><text class="caption" text-anchor="middle" pointer-events="none" x="0" y="5" font-size="10px" fill="#2A2C34" font-family="sans-serif"> LAX</text></g><g class="node" aria-label="graph-node135" transform="translate(-23.318401115432643,81.41930656648965)"><circle class="outline" cx="0" cy="0" r="25" fill="#8DCC93" stroke="#5db665" stroke-width="2px"/><text class="caption" text-anchor="middle" pointer-events="none" x="0" y="5" font-size="10px" fill="#2A2C34" font-family="sans-serif"> 11/30/20…</text></g><g class="node" aria-label="graph-node103" transform="translate(10.793145133376397,172.99653413843637)"><circle class="outline" cx="0" cy="0" r="25" fill="#8DCC93" stroke="#5db665" stroke-width="2px"/><text class="caption" text-anchor="middle" pointer-events="none" x="0" y="5" font-size="10px" fill="#2A2C34" font-family="sans-serif"> 11/30/20…</text></g><g class="node" aria-label="graph-node1003" transform="translate(-119.51531633209166,64.47106341771877)"><circle class="outline" cx="0" cy="0" r="25" fill="#8DCC93" stroke="#5db665" stroke-width="2px"/><text class="caption" text-anchor="middle" pointer-events="none" x="0" y="0" font-size="10px" fill="#2A2C34" font-family="sans-serif"> 11/4/2015</text><text class="caption" text-anchor="middle" pointer-events="none" x="0" y="10" font-size="10px" fill="#2A2C34" font-family="sans-serif"> 05:06:…</text></g><g class="node" aria-label="graph-node995" transform="translate(-152.79509640458534,-27.981105786351552)"><circle class="outline" cx="0" cy="0" r="25" fill="#8DCC93" stroke="#5db665" stroke-width="2px"/><text class="caption" text-anchor="middle" pointer-events="none" x="0" y="0" font-size="10px" fill="#2A2C34" font-family="sans-serif"> 11/2/2015</text><text class="caption" text-anchor="middle" pointer-events="none" x="0" y="10" font-size="10px" fill="#2A2C34" font-family="sans-serif"> 11:49:…</text></g><g class="node" aria-label="graph-node999" transform="translate(-57.15544482034444,-11.202388129568842)"><circle class="outline" cx="0" cy="0" r="25" fill="#8DCC93" stroke="#5db665" stroke-width="2px"/><text class="caption" text-anchor="middle" pointer-events="none" x="0" y="0" font-size="10px" fill="#2A2C34" font-family="sans-serif"> 11/1/2015</text><text class="caption" text-anchor="middle" pointer-events="none" x="0" y="10" font-size="10px" fill="#2A2C34" font-family="sans-serif"> 12:26:…</text></g><g class="node" aria-label="graph-node1007" transform="translate(-216.53733394855223,44.34343750641928)"><circle class="outline" cx="0" cy="0" r="25" fill="#8DCC93" stroke="#5db665" stroke-width="2px"/><text class="caption" text-anchor="middle" pointer-events="none" x="0" y="0" font-size="10px" fill="#2A2C34" font-family="sans-serif"> 11/3/2015</text><text class="caption" text-anchor="middle" pointer-events="none" x="0" y="10" font-size="10px" fill="#2A2C34" font-family="sans-serif"> 13:44:…</text></g><g class="node" aria-label="graph-node659" transform="translate(-188.07678024601844,-120.39336100908004)"><circle class="outline" cx="0" cy="0" r="25" fill="#8DCC93" stroke="#5db665" stroke-width="2px"/><text class="caption" text-anchor="middle" pointer-events="none" x="0" y="5" font-size="10px" fill="#2A2C34" font-family="sans-serif"> 11/29/20…</text></g><g class="node" aria-label="graph-node975" transform="translate(-326.9708183264634,15.754637206555401)"><circle class="outline" cx="0" cy="0" r="25" fill="#8DCC93" stroke="#5db665" stroke-width="2px"/><text class="caption" text-anchor="middle" pointer-events="none" x="0" y="0" font-size="10px" fill="#2A2C34" font-family="sans-serif"> 11/2/2015</text><text class="caption" text-anchor="middle" pointer-events="none" x="0" y="10" font-size="10px" fill="#2A2C34" font-family="sans-serif"> 15:15:…</text></g><g class="node" aria-label="graph-node931" transform="translate(-265.31542073041237,-60.2099063405055)"><circle class="outline" cx="0" cy="0" r="25" fill="#8DCC93" stroke="#5db665" stroke-width="2px"/><text class="caption" text-anchor="middle" pointer-events="none" x="0" y="0" font-size="10px" fill="#2A2C34" font-family="sans-serif"> 11/3/2015</text><text class="caption" text-anchor="middle" pointer-events="none" x="0" y="10" font-size="10px" fill="#2A2C34" font-family="sans-serif"> 21:46:…</text></g><g class="node" aria-label="graph-node927" transform="translate(-360.78998663570525,-77.12767686655249)"><circle class="outline" cx="0" cy="0" r="25" fill="#8DCC93" stroke="#5db665" stroke-width="2px"/><text class="caption" text-anchor="middle" pointer-events="none" x="0" y="0" font-size="10px" fill="#2A2C34" font-family="sans-serif"> 11/1/2015</text><text class="caption" text-anchor="middle" pointer-events="none" x="0" y="10" font-size="10px" fill="#2A2C34" font-family="sans-serif"> 05:43:…</text></g><g class="node" aria-label="graph-node971" transform="translate(-391.6042079533764,90.20080952692297)"><circle class="outline" cx="0" cy="0" r="25" fill="#8DCC93" stroke="#5db665" stroke-width="2px"/><text class="caption" text-anchor="middle" pointer-events="none" x="0" y="0" font-size="10px" fill="#2A2C34" font-family="sans-serif"> 11/1/2015</text><text class="caption" text-anchor="middle" pointer-events="none" x="0" y="10" font-size="10px" fill="#2A2C34" font-family="sans-serif"> 17:17:…</text></g><g class="node" aria-label="graph-node919" transform="translate(-423.0746728207,-1.381479129583724)"><circle class="outline" cx="0" cy="0" r="25" fill="#8DCC93" stroke="#5db665" stroke-width="2px"/><text class="caption" text-anchor="middle" pointer-events="none" x="0" y="0" font-size="10px" fill="#2A2C34" font-family="sans-serif"> 11/2/2015</text><text class="caption" text-anchor="middle" pointer-events="none" x="0" y="10" font-size="10px" fill="#2A2C34" font-family="sans-serif"> 04:43:…</text></g><g class="node" aria-label="graph-node923" transform="translate(-456.76626427457825,163.55328200574147)"><circle class="outline" cx="0" cy="0" r="25" fill="#8DCC93" stroke="#5db665" stroke-width="2px"/><text class="caption" text-anchor="middle" pointer-events="none" x="0" y="0" font-size="10px" fill="#2A2C34" font-family="sans-serif"> 11/4/2015</text><text class="caption" text-anchor="middle" pointer-events="none" x="0" y="10" font-size="10px" fill="#2A2C34" font-family="sans-serif"> 15:09:…</text></g><g class="node" aria-label="graph-node967" transform="translate(-489.01008593637766,71.72714918870214)"><circle class="outline" cx="0" cy="0" r="25" fill="#8DCC93" stroke="#5db665" stroke-width="2px"/><text class="caption" text-anchor="middle" pointer-events="none" x="0" y="0" font-size="10px" fill="#2A2C34" font-family="sans-serif"> 11/3/2015</text><text class="caption" text-anchor="middle" pointer-events="none" x="0" y="10" font-size="10px" fill="#2A2C34" font-family="sans-serif"> 23:26:…</text></g><g class="node" aria-label="graph-node963" transform="translate(-213.17675760389736,329.12052429582144)"><circle class="outline" cx="0" cy="0" r="25" fill="#8DCC93" stroke="#5db665" stroke-width="2px"/><text class="caption" text-anchor="middle" pointer-events="none" x="0" y="0" font-size="10px" fill="#2A2C34" font-family="sans-serif"> 11/4/2015</text><text class="caption" text-anchor="middle" pointer-events="none" x="0" y="10" font-size="10px" fill="#2A2C34" font-family="sans-serif"> 15:13:…</text></g><g class="node" aria-label="graph-node951" transform="translate(-291.2155583934101,270.2006829797531)"><circle class="outline" cx="0" cy="0" r="25" fill="#8DCC93" stroke="#5db665" stroke-width="2px"/><text class="caption" text-anchor="middle" pointer-events="none" x="0" y="0" font-size="10px" fill="#2A2C34" font-family="sans-serif"> 11/3/2015</text><text class="caption" text-anchor="middle" pointer-events="none" x="0" y="10" font-size="10px" fill="#2A2C34" font-family="sans-serif"> 11:45:…</text></g><g class="node" aria-label="graph-node959" transform="translate(-159.7278264823948,246.3277320042728)"><circle class="outline" cx="0" cy="0" r="25" fill="#8DCC93" stroke="#5db665" stroke-width="2px"/><text class="caption" text-anchor="middle" pointer-events="none" x="0" y="0" font-size="10px" fill="#2A2C34" font-family="sans-serif"> 11/1/2015</text><text class="caption" text-anchor="middle" pointer-events="none" x="0" y="10" font-size="10px" fill="#2A2C34" font-family="sans-serif"> 02:27:…</text></g><g class="node" aria-label="graph-node955" transform="translate(-305.15095805936414,366.2048714341373)"><circle class="outline" cx="0" cy="0" r="25" fill="#8DCC93" stroke="#5db665" stroke-width="2px"/><text class="caption" text-anchor="middle" pointer-events="none" x="0" y="0" font-size="10px" fill="#2A2C34" font-family="sans-serif"> 11/2/2015</text><text class="caption" text-anchor="middle" pointer-events="none" x="0" y="10" font-size="10px" fill="#2A2C34" font-family="sans-serif"> 09:18:…</text></g><g class="node" aria-label="graph-node979" transform="translate(-60.2846390023298,250.44027961564387)"><circle class="outline" cx="0" cy="0" r="25" fill="#8DCC93" stroke="#5db665" stroke-width="2px"/><text class="caption" text-anchor="middle" pointer-events="none" x="0" y="0" font-size="10px" fill="#2A2C34" font-family="sans-serif"> 11/1/2015</text><text class="caption" text-anchor="middle" pointer-events="none" x="0" y="10" font-size="10px" fill="#2A2C34" font-family="sans-serif"> 05:51:…</text></g><g class="node" aria-label="graph-node983" transform="translate(-114.32783088504222,332.96963382595857)"><circle class="outline" cx="0" cy="0" r="25" fill="#8DCC93" stroke="#5db665" stroke-width="2px"/><text class="caption" text-anchor="middle" pointer-events="none" x="0" y="0" font-size="10px" fill="#2A2C34" font-family="sans-serif"> 11/2/2015</text><text class="caption" text-anchor="middle" pointer-events="none" x="0" y="10" font-size="10px" fill="#2A2C34" font-family="sans-serif"> 09:52:…</text></g></g></svg>