<svg xmlns="http://www.w3.org/2000/svg" width="1064.7908935546875" height="764.052001953125" viewBox="-376.3547058105469 -367.92144775390625 1064.7908935546875 764.052001953125"><title>Neo4j Graph Visualization</title><desc>Created using Neo4j (http://www.neo4j.com/)</desc><g class="layer relationships"><g class="relationship" transform="translate(-52.16062231544575 208.88358680819175) rotate(254.62685374908875)"><path class="outline" fill="#A5ABB6" stroke="none" d="M 25 0.5 L 117.25319295118544 0.5 L 117.25319295118544 -0.5 L 25 -0.5 Z M 151.69850545118544 0.5 L 243.95169840237088 0.5 L 243.95169840237088 3.5 L 250.95169840237088 0 L 243.95169840237088 -3.5 L 243.95169840237088 -0.5 L 151.69850545118544 -0.5 Z"/><text text-anchor="middle" pointer-events="none" font-size="8px" fill="#000000" x="134.47584920118544" y="3" transform="rotate(180 134.47584920118544 0)" font-family="sans-serif">ORIGIN</text></g><g class="relationship" transform="translate(-52.16062231544575 208.88358680819175) rotate(409.48670211505896)"><path class="outline" fill="#A5ABB6" stroke="none" d="M 25 0.5 L 70.98117422941266 0.5 L 70.98117422941266 -0.5 L 25 -0.5 Z M 130.16867422941266 0.5 L 176.14984845882532 0.5 L 176.14984845882532 3.5 L 183.14984845882532 0 L 176.14984845882532 -3.5 L 176.14984845882532 -0.5 L 130.16867422941266 -0.5 Z"/><text text-anchor="middle" pointer-events="none" font-size="8px" fill="#000000" x="100.57492422941266" y="3" font-family="sans-serif">DESTINATION</text></g><g class="relationship" transform="translate(41.07296786877245 238.86616457856368) rotate(431.87482945994753)"><path class="outline" fill="#A5ABB6" stroke="none" d="M 25 0.5 L 34.38691219839255 0.5 L 34.38691219839255 -0.5 L 25 -0.5 Z M 93.57441219839255 0.5 L 102.9613243967851 0.5 L 102.9613243967851 3.5 L 109.9613243967851 0 L 102.9613243967851 -3.5 L 102.9613243967851 -0.5 L 93.57441219839255 -0.5 Z"/><text text-anchor="middle" pointer-events="none" font-size="8px" fill="#000000" x="63.98066219839255" y="3" font-family="sans-serif">DESTINATION</text></g><g class="relationship" transform="translate(41.07296786877245 238.86616457856368) rotate(260.8001111759343)"><path class="outline" fill="#A5ABB6" stroke="none" d="M 25 0.5 L 88.76686074058189 0.5 L 88.76686074058189 -0.5 L 25 -0.5 Z M 123.21217324058189 0.5 L 186.97903398116378 0.5 L 186.97903398116378 3.5 L 193.97903398116378 0 L 186.97903398116378 -3.5 L 186.97903398116378 -0.5 L 123.21217324058189 -0.5 Z"/><text text-anchor="middle" pointer-events="none" font-size="8px" fill="#000000" x="105.98951699058189" y="3" transform="rotate(180 105.98951699058189 0)" font-family="sans-serif">ORIGIN</text></g><g class="relationship" transform="translate(189.3806647591035 22.744720032772506) rotate(180.0127423371203)"><path class="outline" fill="#A5ABB6" stroke="none" d="M 25 0.5 L 58.56520500910011 0.5 L 58.56520500910011 -0.5 L 25 -0.5 Z M 117.75270500910011 0.5 L 151.31791001820022 0.5 L 151.31791001820022 3.5 L 158.31791001820022 0 L 151.31791001820022 -3.5 L 151.31791001820022 -0.5 L 117.75270500910011 -0.5 Z"/><text text-anchor="middle" pointer-events="none" font-size="8px" fill="#000000" x="88.15895500910011" y="3" transform="rotate(180 88.15895500910011 0)" font-family="sans-serif">DESTINATION</text></g><g class="relationship" transform="translate(189.3806647591035 22.744720032772506) rotate(362.6384210580588)"><path class="outline" fill="#A5ABB6" stroke="none" d="M 25 0.5 L 86.37987411210477 0.5 L 86.37987411210477 -0.5 L 25 -0.5 Z M 120.82518661210477 0.5 L 182.20506072420955 0.5 L 182.20506072420955 3.5 L 189.20506072420955 0 L 182.20506072420955 -3.5 L 182.20506072420955 -0.5 L 120.82518661210477 -0.5 Z"/><text text-anchor="middle" pointer-events="none" font-size="8px" fill="#000000" x="103.60253036210477" y="3" font-family="sans-serif">ORIGIN</text></g><g class="relationship" transform="translate(542.8887424465761 116.45691801751748) rotate(211.0040999426522)"><path class="outline" fill="#A5ABB6" stroke="none" d="M 25 0.5 L 60.67107513566269 0.5 L 60.67107513566269 -0.5 L 25 -0.5 Z M 95.11638763566269 0.5 L 130.78746277132538 0.5 L 130.78746277132538 3.5 L 137.78746277132538 0 L 130.78746277132538 -3.5 L 130.78746277132538 -0.5 L 95.11638763566269 -0.5 Z"/><text text-anchor="middle" pointer-events="none" font-size="8px" fill="#000000" x="77.89373138566269" y="3" transform="rotate(180 77.89373138566269 0)" font-family="sans-serif">ORIGIN</text></g><g class="relationship" transform="translate(542.8887424465761 116.45691801751748) rotate(352.78030961942613)"><path class="outline" fill="#A5ABB6" stroke="none" d="M 25 0.5 L 25.645653887544213 0.5 L 25.645653887544213 -0.5 L 25 -0.5 Z M 84.83315388754421 0.5 L 85.47880777508843 0.5 L 85.47880777508843 3.5 L 92.47880777508843 0 L 85.47880777508843 -3.5 L 85.47880777508843 -0.5 L 84.83315388754421 -0.5 Z"/><text text-anchor="middle" pointer-events="none" font-size="8px" fill="#000000" x="55.23940388754421" y="3" font-family="sans-serif">DESTINATION</text></g><g class="relationship" transform="translate(119.86598560995509 179.7472778386326) rotate(461.1130188784654)"><path class="outline" fill="#A5ABB6" stroke="none" d="M 25 0.5 L 62.38830236987471 0.5 L 62.38830236987471 -0.5 L 25 -0.5 Z M 121.57580236987471 0.5 L 158.96410473974942 0.5 L 158.96410473974942 3.5 L 165.96410473974942 0 L 158.96410473974942 -3.5 L 158.96410473974942 -0.5 L 121.57580236987471 -0.5 Z"/><text text-anchor="middle" pointer-events="none" font-size="8px" fill="#000000" x="91.98205236987471" y="3" transform="rotate(180 91.98205236987471 0)" font-family="sans-serif">DESTINATION</text></g><g class="relationship" transform="translate(119.86598560995509 179.7472778386326) rotate(234.0706090923117)"><path class="outline" fill="#A5ABB6" stroke="none" d="M 25 0.5 L 76.24870660622591 0.5 L 76.24870660622591 -0.5 L 25 -0.5 Z M 110.69401910622591 0.5 L 161.94272571245182 0.5 L 161.94272571245182 3.5 L 168.94272571245182 0 L 161.94272571245182 -3.5 L 161.94272571245182 -0.5 L 110.69401910622591 -0.5 Z"/><text text-anchor="middle" pointer-events="none" font-size="8px" fill="#000000" x="93.47136285622591" y="3" transform="rotate(180 93.47136285622591 0)" font-family="sans-serif">ORIGIN</text></g><g class="relationship" transform="translate(235.67267041416903 269.6831588891793) rotate(507.4408711412001)"><path class="outline" fill="#A5ABB6" stroke="none" d="M 25 0.5 L 69.813317864642 0.5 L 69.813317864642 -0.5 L 25 -0.5 Z M 104.258630364642 0.5 L 149.071948229284 0.5 L 149.071948229284 3.5 L 156.071948229284 0 L 149.071948229284 -3.5 L 149.071948229284 -0.5 L 104.258630364642 -0.5 Z"/><text text-anchor="middle" pointer-events="none" font-size="8px" fill="#000000" x="87.035974114642" y="3" transform="rotate(180 87.035974114642 0)" font-family="sans-serif">ORIGIN</text></g><g class="relationship" transform="translate(235.67267041416903 269.6831588891793) rotate(282.11560937402777)"><path class="outline" fill="#A5ABB6" stroke="none" d="M 25 0.5 L 73.10604877996276 0.5 L 73.10604877996276 -0.5 L 25 -0.5 Z M 132.29354877996275 0.5 L 180.39959755992552 0.5 L 180.39959755992552 3.5 L 187.39959755992552 0 L 180.39959755992552 -3.5 L 180.39959755992552 -0.5 L 132.29354877996275 -0.5 Z"/><text text-anchor="middle" pointer-events="none" font-size="8px" fill="#000000" x="102.69979877996276" y="3" font-family="sans-serif">DESTINATION</text></g><g class="relationship" transform="translate(390.60678269936807 185.03857336348602) rotate(228.10736063094282)"><path class="outline" fill="#A5ABB6" stroke="none" d="M 25 0.5 L 49.53956787128196 0.5 L 49.53956787128196 -0.5 L 25 -0.5 Z M 108.72706787128196 0.5 L 133.26663574256392 0.5 L 133.26663574256392 3.5 L 140.26663574256392 0 L 133.26663574256392 -3.5 L 133.26663574256392 -0.5 L 108.72706787128196 -0.5 Z"/><text text-anchor="middle" pointer-events="none" font-size="8px" fill="#000000" x="79.13331787128196" y="3" transform="rotate(180 79.13331787128196 0)" font-family="sans-serif">DESTINATION</text></g><g class="relationship" transform="translate(390.60678269936807 185.03857336348602) rotate(274.7819647830934)"><path class="outline" fill="#A5ABB6" stroke="none" d="M 25 0.5 L 55.760260063760995 0.5 L 55.760260063760995 -0.5 L 25 -0.5 Z M 90.205572563761 0.5 L 120.96583262752199 0.5 L 120.96583262752199 3.5 L 127.96583262752199 0 L 120.96583262752199 -3.5 L 120.96583262752199 -0.5 L 90.205572563761 -0.5 Z"/><text text-anchor="middle" pointer-events="none" font-size="8px" fill="#000000" x="72.982916313761" y="3" font-family="sans-serif">ORIGIN</text></g><g class="relationship" transform="translate(539.9353916049224 -78.74958274910138) rotate(500.8086917684358)"><path class="outline" fill="#A5ABB6" stroke="none" d="M 25 0.5 L 67.3867807806489 0.5 L 67.3867807806489 -0.5 L 25 -0.5 Z M 101.8320932806489 0.5 L 144.2188740612978 0.5 L 144.2188740612978 3.5 L 151.2188740612978 0 L 144.2188740612978 -3.5 L 144.2188740612978 -0.5 L 101.8320932806489 -0.5 Z"/><text text-anchor="middle" pointer-events="none" font-size="8px" fill="#000000" x="84.6094370306489" y="3" transform="rotate(180 84.6094370306489 0)" font-family="sans-serif">ORIGIN</text></g><g class="relationship" transform="translate(539.9353916049224 -78.74958274910138) rotate(416.48488119578576)"><path class="outline" fill="#A5ABB6" stroke="none" d="M 25 0.5 L 75.11889139921543 0.5 L 75.11889139921543 -0.5 L 25 -0.5 Z M 134.30639139921544 0.5 L 184.42528279843086 0.5 L 184.42528279843086 3.5 L 191.42528279843086 0 L 184.42528279843086 -3.5 L 184.42528279843086 -0.5 L 134.30639139921544 -0.5 Z"/><text text-anchor="middle" pointer-events="none" font-size="8px" fill="#000000" x="104.71264139921543" y="3" font-family="sans-serif">DESTINATION</text></g><g class="relationship" transform="translate(527.945786699969 19.63956876039644) rotate(534.0586888917385)"><path class="outline" fill="#A5ABB6" stroke="none" d="M 25 0.5 L 41.90733148133994 0.5 L 41.90733148133994 -0.5 L 25 -0.5 Z M 76.35264398133994 0.5 L 93.25997546267988 0.5 L 93.25997546267988 3.5 L 100.25997546267988 0 L 93.25997546267988 -3.5 L 93.25997546267988 -0.5 L 76.35264398133994 -0.5 Z"/><text text-anchor="middle" pointer-events="none" font-size="8px" fill="#000000" x="59.12998773133994" y="3" transform="rotate(180 59.12998773133994 0)" font-family="sans-serif">ORIGIN</text></g><g class="relationship" transform="translate(527.945786699969 19.63956876039644) rotate(391.96520564052435)"><path class="outline" fill="#A5ABB6" stroke="none" d="M 25 0.5 L 44.402142282761886 0.5 L 44.402142282761886 -0.5 L 25 -0.5 Z M 103.58964228276189 0.5 L 122.99178456552377 0.5 L 122.99178456552377 3.5 L 129.99178456552377 0 L 122.99178456552377 -3.5 L 122.99178456552377 -0.5 L 103.58964228276189 -0.5 Z"/><text text-anchor="middle" pointer-events="none" font-size="8px" fill="#000000" x="73.99589228276189" y="3" font-family="sans-serif">DESTINATION</text></g><g class="relationship" transform="translate(617.9603771235752 -18.991676358406103) rotate(526.4809293053318)"><path class="outline" fill="#A5ABB6" stroke="none" d="M 25 0.5 L 89.63600577197471 0.5 L 89.63600577197471 -0.5 L 25 -0.5 Z M 124.08131827197471 0.5 L 188.71732404394942 0.5 L 188.71732404394942 3.5 L 195.71732404394942 0 L 188.71732404394942 -3.5 L 188.71732404394942 -0.5 L 124.08131827197471 -0.5 Z"/><text text-anchor="middle" pointer-events="none" font-size="8px" fill="#000000" x="106.85866202197471" y="3" transform="rotate(180 106.85866202197471 0)" font-family="sans-serif">ORIGIN</text></g><g class="relationship" transform="translate(617.9603771235752 -18.991676358406103) rotate(431.03365157549285)"><path class="outline" fill="#A5ABB6" stroke="none" d="M 25 0.5 L 30.712590806600325 0.5 L 30.712590806600325 -0.5 L 25 -0.5 Z M 89.90009080660033 0.5 L 95.61268161320065 0.5 L 95.61268161320065 3.5 L 102.61268161320065 0 L 95.61268161320065 -3.5 L 95.61268161320065 -0.5 L 89.90009080660033 -0.5 Z"/><text text-anchor="middle" pointer-events="none" font-size="8px" fill="#000000" x="60.306340806600325" y="3" font-family="sans-serif">DESTINATION</text></g><g class="relationship" transform="translate(201.19565087515315 120.03789485517225) rotate(206.5104105760576)"><path class="outline" fill="#A5ABB6" stroke="none" d="M 25 0.5 L 75.93691315049564 0.5 L 75.93691315049564 -0.5 L 25 -0.5 Z M 135.12441315049563 0.5 L 186.06132630099128 0.5 L 186.06132630099128 3.5 L 193.06132630099128 0 L 186.06132630099128 -3.5 L 186.06132630099128 -0.5 L 135.12441315049563 -0.5 Z"/><text text-anchor="middle" pointer-events="none" font-size="8px" fill="#000000" x="105.53066315049564" y="3" transform="rotate(180 105.53066315049564 0)" font-family="sans-serif">DESTINATION</text></g><g class="relationship" transform="translate(201.19565087515315 120.03789485517225) rotate(336.61218493227886)"><path class="outline" fill="#A5ABB6" stroke="none" d="M 25 0.5 L 89.40721783967025 0.5 L 89.40721783967025 -0.5 L 25 -0.5 Z M 123.85253033967025 0.5 L 188.2597481793405 0.5 L 188.2597481793405 3.5 L 195.2597481793405 0 L 188.2597481793405 -3.5 L 188.2597481793405 -0.5 L 123.85253033967025 -0.5 Z"/><text text-anchor="middle" pointer-events="none" font-size="8px" fill="#000000" x="106.62987408967025" y="3" font-family="sans-serif">ORIGIN</text></g><g class="relationship" transform="translate(229.2755531030573 -66.25243520274847) rotate(518.2713696914951)"><path class="outline" fill="#A5ABB6" stroke="none" d="M 25 0.5 L 87.0490712163608 0.5 L 87.0490712163608 -0.5 L 25 -0.5 Z M 146.2365712163608 0.5 L 208.2856424327216 0.5 L 208.2856424327216 3.5 L 215.2856424327216 0 L 208.2856424327216 -3.5 L 208.2856424327216 -0.5 L 146.2365712163608 -0.5 Z"/><text text-anchor="middle" pointer-events="none" font-size="8px" fill="#000000" x="116.6428212163608" y="3" transform="rotate(180 116.6428212163608 0)" font-family="sans-serif">DESTINATION</text></g><g class="relationship" transform="translate(229.2755531030573 -66.25243520274847) rotate(389.5912063642861)"><path class="outline" fill="#A5ABB6" stroke="none" d="M 25 0.5 L 79.374491379341 0.5 L 79.374491379341 -0.5 L 25 -0.5 Z M 113.819803879341 0.5 L 168.194295258682 0.5 L 168.194295258682 3.5 L 175.194295258682 0 L 168.194295258682 -3.5 L 168.194295258682 -0.5 L 113.819803879341 -0.5 Z"/><text text-anchor="middle" pointer-events="none" font-size="8px" fill="#000000" x="96.597147629341" y="3" font-family="sans-serif">ORIGIN</text></g><g class="relationship" transform="translate(-3.665109938171904 -226.06711804684727) rotate(485.76800343859384)"><path class="outline" fill="#A5ABB6" stroke="none" d="M 25 0.5 L 83.34107969189829 0.5 L 83.34107969189829 -0.5 L 25 -0.5 Z M 117.78639219189829 0.5 L 176.12747188379657 0.5 L 176.12747188379657 3.5 L 183.12747188379657 0 L 176.12747188379657 -3.5 L 176.12747188379657 -0.5 L 117.78639219189829 -0.5 Z"/><text text-anchor="middle" pointer-events="none" font-size="8px" fill="#000000" x="100.56373594189829" y="3" transform="rotate(180 100.56373594189829 0)" font-family="sans-serif">ORIGIN</text></g><g class="relationship" transform="translate(-3.665109938171904 -226.06711804684727) rotate(303.3823598099374)"><path class="outline" fill="#A5ABB6" stroke="none" d="M 25 0.5 L 34.48228777933157 0.5 L 34.48228777933157 -0.5 L 25 -0.5 Z M 93.66978777933157 0.5 L 103.15207555866314 0.5 L 103.15207555866314 3.5 L 110.15207555866314 0 L 103.15207555866314 -3.5 L 103.15207555866314 -0.5 L 93.66978777933157 -0.5 Z"/><text text-anchor="middle" pointer-events="none" font-size="8px" fill="#000000" x="64.07603777933157" y="3" font-family="sans-serif">DESTINATION</text></g><g class="relationship" transform="translate(226.0060693951521 -184.79340921393813) rotate(224.7816435272465)"><path class="outline" fill="#A5ABB6" stroke="none" d="M 25 0.5 L 88.68005098671054 0.5 L 88.68005098671054 -0.5 L 25 -0.5 Z M 123.12536348671054 0.5 L 186.80541447342108 0.5 L 186.80541447342108 3.5 L 193.80541447342108 0 L 186.80541447342108 -3.5 L 186.80541447342108 -0.5 L 123.12536348671054 -0.5 Z"/><text text-anchor="middle" pointer-events="none" font-size="8px" fill="#000000" x="105.90270723671054" y="3" transform="rotate(180 105.90270723671054 0)" font-family="sans-serif">ORIGIN</text></g><g class="relationship" transform="translate(226.0060693951521 -184.79340921393813) rotate(437.6040231312716)"><path class="outline" fill="#A5ABB6" stroke="none" d="M 25 0.5 L 93.25576113699044 0.5 L 93.25576113699044 -0.5 L 25 -0.5 Z M 152.44326113699043 0.5 L 220.6990222739809 0.5 L 220.6990222739809 3.5 L 227.6990222739809 0 L 220.6990222739809 -3.5 L 220.6990222739809 -0.5 L 152.44326113699043 -0.5 Z"/><text text-anchor="middle" pointer-events="none" font-size="8px" fill="#000000" x="122.84951113699044" y="3" font-family="sans-serif">DESTINATION</text></g><g class="relationship" transform="translate(-151.30371786539828 -312.45922697701366) rotate(444.18705102339885)"><path class="outline" fill="#A5ABB6" stroke="none" d="M 25 0.5 L 107.56940806909239 0.5 L 107.56940806909239 -0.5 L 25 -0.5 Z M 142.0147205690924 0.5 L 224.58412863818478 0.5 L 224.58412863818478 3.5 L 231.58412863818478 0 L 224.58412863818478 -3.5 L 224.58412863818478 -0.5 L 142.0147205690924 -0.5 Z"/><text text-anchor="middle" pointer-events="none" font-size="8px" fill="#000000" x="124.79206431909239" y="3" font-family="sans-serif">ORIGIN</text></g><g class="relationship" transform="translate(-151.30371786539828 -312.45922697701366) rotate(353.20253962305424)"><path class="outline" fill="#A5ABB6" stroke="none" d="M 25 0.5 L 78.69326855543063 0.5 L 78.69326855543063 -0.5 L 25 -0.5 Z M 137.88076855543062 0.5 L 191.57403711086127 0.5 L 191.57403711086127 3.5 L 198.57403711086127 0 L 191.57403711086127 -3.5 L 191.57403711086127 -0.5 L 137.88076855543062 -0.5 Z"/><text text-anchor="middle" pointer-events="none" font-size="8px" fill="#000000" x="108.28701855543063" y="3" font-family="sans-serif">DESTINATION</text></g><g class="relationship" transform="translate(-101.66034634056467 -228.45293436705109) rotate(457.86460185683126)"><path class="outline" fill="#A5ABB6" stroke="none" d="M 25 0.5 L 65.71962373074571 0.5 L 65.71962373074571 -0.5 L 25 -0.5 Z M 100.16493623074571 0.5 L 140.88455996149142 0.5 L 140.88455996149142 3.5 L 147.88455996149142 0 L 140.88455996149142 -3.5 L 140.88455996149142 -0.5 L 100.16493623074571 -0.5 Z"/><text text-anchor="middle" pointer-events="none" font-size="8px" fill="#000000" x="82.94227998074571" y="3" transform="rotate(180 82.94227998074571 0)" font-family="sans-serif">ORIGIN</text></g><g class="relationship" transform="translate(-101.66034634056467 -228.45293436705109) rotate(327.34335260058424)"><path class="outline" fill="#A5ABB6" stroke="none" d="M 25 0.5 L 69.26707403146277 0.5 L 69.26707403146277 -0.5 L 25 -0.5 Z M 128.45457403146276 0.5 L 172.72164806292554 0.5 L 172.72164806292554 3.5 L 179.72164806292554 0 L 172.72164806292554 -3.5 L 172.72164806292554 -0.5 L 128.45457403146276 -0.5 Z"/><text text-anchor="middle" pointer-events="none" font-size="8px" fill="#000000" x="98.86082403146277" y="3" font-family="sans-serif">DESTINATION</text></g><g class="relationship" transform="translate(-53.01883665351864 -311.2790324503389) rotate(465.88328417327716)"><path class="outline" fill="#A5ABB6" stroke="none" d="M 25 0.5 L 111.3624651257285 0.5 L 111.3624651257285 -0.5 L 25 -0.5 Z M 145.8077776257285 0.5 L 232.170242751457 0.5 L 232.170242751457 3.5 L 239.170242751457 0 L 232.170242751457 -3.5 L 232.170242751457 -0.5 L 145.8077776257285 -0.5 Z"/><text text-anchor="middle" pointer-events="none" font-size="8px" fill="#000000" x="128.5851213757285" y="3" transform="rotate(180 128.5851213757285 0)" font-family="sans-serif">ORIGIN</text></g><g class="relationship" transform="translate(-53.01883665351864 -311.2790324503389) rotate(347.4051838007316)"><path class="outline" fill="#A5ABB6" stroke="none" d="M 25 0.5 L 30.29029190086903 0.5 L 30.29029190086903 -0.5 L 25 -0.5 Z M 89.47779190086902 0.5 L 94.76808380173806 0.5 L 94.76808380173806 3.5 L 101.76808380173806 0 L 94.76808380173806 -3.5 L 94.76808380173806 -0.5 L 89.47779190086902 -0.5 Z"/><text text-anchor="middle" pointer-events="none" font-size="8px" fill="#000000" x="59.88404190086903" y="3" font-family="sans-serif">DESTINATION</text></g><g class="relationship" transform="translate(504.01006877115316 206.11006865956531) rotate(239.8816739462954)"><path class="outline" fill="#A5ABB6" stroke="none" d="M 25 0.5 L 79.57022721390229 0.5 L 79.57022721390229 -0.5 L 25 -0.5 Z M 114.01553971390229 0.5 L 168.58576692780457 0.5 L 168.58576692780457 3.5 L 175.58576692780457 0 L 168.58576692780457 -3.5 L 168.58576692780457 -0.5 L 114.01553971390229 -0.5 Z"/><text text-anchor="middle" pointer-events="none" font-size="8px" fill="#000000" x="96.79288346390229" y="3" transform="rotate(180 96.79288346390229 0)" font-family="sans-serif">ORIGIN</text></g><g class="relationship" transform="translate(504.01006877115316 206.11006865956531) rotate(326.1062921061492)"><path class="outline" fill="#A5ABB6" stroke="none" d="M 25 0.5 L 60.52811197082073 0.5 L 60.52811197082073 -0.5 L 25 -0.5 Z M 119.71561197082073 0.5 L 155.24372394164146 0.5 L 155.24372394164146 3.5 L 162.24372394164146 0 L 155.24372394164146 -3.5 L 155.24372394164146 -0.5 L 119.71561197082073 -0.5 Z"/><text text-anchor="middle" pointer-events="none" font-size="8px" fill="#000000" x="90.12186197082073" y="3" font-family="sans-serif">DESTINATION</text></g><g class="relationship" transform="translate(126.55189130797388 -171.21257123944073) rotate(251.58037325532558)"><path class="outline" fill="#A5ABB6" stroke="none" d="M 25 0.5 L 55.28870957333271 0.5 L 55.28870957333271 -0.5 L 25 -0.5 Z M 114.47620957333271 0.5 L 144.76491914666542 0.5 L 144.76491914666542 3.5 L 151.76491914666542 0 L 144.76491914666542 -3.5 L 144.76491914666542 -0.5 L 114.47620957333271 -0.5 Z"/><text text-anchor="middle" pointer-events="none" font-size="8px" fill="#000000" x="84.88245957333271" y="3" transform="rotate(180 84.88245957333271 0)" font-family="sans-serif">DESTINATION</text></g><g class="relationship" transform="translate(126.55189130797388 -171.21257123944073) rotate(481.8545594844112)"><path class="outline" fill="#A5ABB6" stroke="none" d="M 25 0.5 L 93.42773632629235 0.5 L 93.42773632629235 -0.5 L 25 -0.5 Z M 127.87304882629235 0.5 L 196.3007851525847 0.5 L 196.3007851525847 3.5 L 203.3007851525847 0 L 196.3007851525847 -3.5 L 196.3007851525847 -0.5 L 127.87304882629235 -0.5 Z"/><text text-anchor="middle" pointer-events="none" font-size="8px" fill="#000000" x="110.65039257629235" y="3" transform="rotate(180 110.65039257629235 0)" font-family="sans-serif">ORIGIN</text></g><g class="relationship" transform="translate(34.938204856806564 -136.26219651030758) rotate(280.00720163962706)"><path class="outline" fill="#A5ABB6" stroke="none" d="M 25 0.5 L 69.8013257605995 0.5 L 69.8013257605995 -0.5 L 25 -0.5 Z M 128.9888257605995 0.5 L 173.790151521199 0.5 L 173.790151521199 3.5 L 180.790151521199 0 L 173.790151521199 -3.5 L 173.790151521199 -0.5 L 128.9888257605995 -0.5 Z"/><text text-anchor="middle" pointer-events="none" font-size="8px" fill="#000000" x="99.3950757605995" y="3" font-family="sans-serif">DESTINATION</text></g><g class="relationship" transform="translate(34.938204856806564 -136.26219651030758) rotate(460.29525497541846)"><path class="outline" fill="#A5ABB6" stroke="none" d="M 25 0.5 L 60.06104783640406 0.5 L 60.06104783640406 -0.5 L 25 -0.5 Z M 94.50636033640406 0.5 L 129.56740817280811 0.5 L 129.56740817280811 3.5 L 136.56740817280811 0 L 129.56740817280811 -3.5 L 129.56740817280811 -0.5 L 94.50636033640406 -0.5 Z"/><text text-anchor="middle" pointer-events="none" font-size="8px" fill="#000000" x="77.28370408640406" y="3" transform="rotate(180 77.28370408640406 0)" font-family="sans-serif">ORIGIN</text></g><g class="relationship" transform="translate(-312.65825016636904 -129.61173847630832) rotate(381.1340956776229)"><path class="outline" fill="#A5ABB6" stroke="none" d="M 25 0.5 L 79.7028844386046 0.5 L 79.7028844386046 -0.5 L 25 -0.5 Z M 114.1481969386046 0.5 L 168.8510813772092 0.5 L 168.8510813772092 3.5 L 175.8510813772092 0 L 168.8510813772092 -3.5 L 168.8510813772092 -0.5 L 114.1481969386046 -0.5 Z"/><text text-anchor="middle" pointer-events="none" font-size="8px" fill="#000000" x="96.9255406886046" y="3" font-family="sans-serif">ORIGIN</text></g><g class="relationship" transform="translate(-312.65825016636904 -129.61173847630832) rotate(288.2477867853002)"><path class="outline" fill="#A5ABB6" stroke="none" d="M 25 0.5 L 34.165482470910504 0.5 L 34.165482470910504 -0.5 L 25 -0.5 Z M 93.3529824709105 0.5 L 102.51846494182101 0.5 L 102.51846494182101 3.5 L 109.51846494182101 0 L 102.51846494182101 -3.5 L 102.51846494182101 -0.5 L 93.3529824709105 -0.5 Z"/><text text-anchor="middle" pointer-events="none" font-size="8px" fill="#000000" x="63.759232470910504" y="3" font-family="sans-serif">DESTINATION</text></g><g class="relationship" transform="translate(-65.59862335835668 -136.19384104062652) rotate(210.5940863992505)"><path class="outline" fill="#A5ABB6" stroke="none" d="M 25 0.5 L 98.31750517385812 0.5 L 98.31750517385812 -0.5 L 25 -0.5 Z M 132.76281767385814 0.5 L 206.08032284771625 0.5 L 206.08032284771625 3.5 L 213.08032284771625 0 L 206.08032284771625 -3.5 L 206.08032284771625 -0.5 L 132.76281767385814 -0.5 Z"/><text text-anchor="middle" pointer-events="none" font-size="8px" fill="#000000" x="115.54016142385812" y="3" transform="rotate(180 115.54016142385812 0)" font-family="sans-serif">ORIGIN</text></g><g class="relationship" transform="translate(-65.59862335835668 -136.19384104062652) rotate(425.725081208541)"><path class="outline" fill="#A5ABB6" stroke="none" d="M 25 0.5 L 54.06108642353496 0.5 L 54.06108642353496 -0.5 L 25 -0.5 Z M 113.24858642353496 0.5 L 142.30967284706992 0.5 L 142.30967284706992 3.5 L 149.30967284706992 0 L 142.30967284706992 -3.5 L 142.30967284706992 -0.5 L 113.24858642353496 -0.5 Z"/><text text-anchor="middle" pointer-events="none" font-size="8px" fill="#000000" x="83.65483642353496" y="3" font-family="sans-serif">DESTINATION</text></g><g class="relationship" transform="translate(-222.238941388092 -70.5185201216995) rotate(255.50688928549778)"><path class="outline" fill="#A5ABB6" stroke="none" d="M 25 0.5 L 63.40036804678435 0.5 L 63.40036804678435 -0.5 L 25 -0.5 Z M 122.58786804678435 0.5 L 160.9882360935687 0.5 L 160.9882360935687 3.5 L 167.9882360935687 0 L 160.9882360935687 -3.5 L 160.9882360935687 -0.5 L 122.58786804678435 -0.5 Z"/><text text-anchor="middle" pointer-events="none" font-size="8px" fill="#000000" x="92.99411804678435" y="3" transform="rotate(180 92.99411804678435 0)" font-family="sans-serif">DESTINATION</text></g><g class="relationship" transform="translate(-222.238941388092 -70.5185201216995) rotate(382.21167508189916)"><path class="outline" fill="#A5ABB6" stroke="none" d="M 25 0.5 L 102.57788676469319 0.5 L 102.57788676469319 -0.5 L 25 -0.5 Z M 137.02319926469318 0.5 L 214.60108602938638 0.5 L 214.60108602938638 3.5 L 221.60108602938638 0 L 214.60108602938638 -3.5 L 214.60108602938638 -0.5 L 137.02319926469318 -0.5 Z"/><text text-anchor="middle" pointer-events="none" font-size="8px" fill="#000000" x="119.80054301469319" y="3" font-family="sans-serif">ORIGIN</text></g><g class="relationship" transform="translate(-161.88068247527264 -148.45033251897038) rotate(225.06818297243888)"><path class="outline" fill="#A5ABB6" stroke="none" d="M 25 0.5 L 43.829371642086045 0.5 L 43.829371642086045 -0.5 L 25 -0.5 Z M 103.01687164208604 0.5 L 121.84624328417209 0.5 L 121.84624328417209 3.5 L 128.8462432841721 0 L 121.84624328417209 -3.5 L 121.84624328417209 -0.5 L 103.01687164208604 -0.5 Z"/><text text-anchor="middle" pointer-events="none" font-size="8px" fill="#000000" x="73.42312164208604" y="3" transform="rotate(180 73.42312164208604 0)" font-family="sans-serif">DESTINATION</text></g><g class="relationship" transform="translate(-161.88068247527264 -148.45033251897038) rotate(405.54250490516756)"><path class="outline" fill="#A5ABB6" stroke="none" d="M 25 0.5 L 99.17186860754128 0.5 L 99.17186860754128 -0.5 L 25 -0.5 Z M 133.61718110754128 0.5 L 207.78904971508257 0.5 L 207.78904971508257 3.5 L 214.78904971508257 0 L 207.78904971508257 -3.5 L 207.78904971508257 -0.5 L 133.61718110754128 -0.5 Z"/><text text-anchor="middle" pointer-events="none" font-size="8px" fill="#000000" x="116.39452485754128" y="3" font-family="sans-serif">ORIGIN</text></g><g class="relationship" transform="translate(-347.3547098067962 27.43510954986966) rotate(339.135706193386)"><path class="outline" fill="#A5ABB6" stroke="none" d="M 25 0.5 L 98.08716942739937 0.5 L 98.08716942739937 -0.5 L 25 -0.5 Z M 132.53248192739937 0.5 L 205.61965135479875 0.5 L 205.61965135479875 3.5 L 212.61965135479875 0 L 205.61965135479875 -3.5 L 205.61965135479875 -0.5 L 132.53248192739937 -0.5 Z"/><text text-anchor="middle" pointer-events="none" font-size="8px" fill="#000000" x="115.30982567739937" y="3" font-family="sans-serif">ORIGIN</text></g><g class="relationship" transform="translate(-347.3547098067962 27.43510954986966) rotate(421.9444687398498)"><path class="outline" fill="#A5ABB6" stroke="none" d="M 25 0.5 L 69.61200869225124 0.5 L 69.61200869225124 -0.5 L 25 -0.5 Z M 128.79950869225124 0.5 L 173.41151738450247 0.5 L 173.41151738450247 3.5 L 180.41151738450247 0 L 173.41151738450247 -3.5 L 173.41151738450247 -0.5 L 128.79950869225124 -0.5 Z"/><text text-anchor="middle" pointer-events="none" font-size="8px" fill="#000000" x="99.20575869225124" y="3" font-family="sans-serif">DESTINATION</text></g><g class="relationship" transform="translate(-150.8235812471172 38.60137708085135) rotate(480.4297787127779)"><path class="outline" fill="#A5ABB6" stroke="none" d="M 25 0.5 L 77.9190827603583 0.5 L 77.9190827603583 -0.5 L 25 -0.5 Z M 112.3643952603583 0.5 L 165.2834780207166 0.5 L 165.2834780207166 3.5 L 172.2834780207166 0 L 165.2834780207166 -3.5 L 165.2834780207166 -0.5 L 112.3643952603583 -0.5 Z"/><text text-anchor="middle" pointer-events="none" font-size="8px" fill="#000000" x="95.1417390103583" y="3" transform="rotate(180 95.1417390103583 0)" font-family="sans-serif">ORIGIN</text></g><g class="relationship" transform="translate(-150.8235812471172 38.60137708085135) rotate(354.2139197608518)"><path class="outline" fill="#A5ABB6" stroke="none" d="M 25 0.5 L 45.75111667029968 0.5 L 45.75111667029968 -0.5 L 25 -0.5 Z M 104.93861667029968 0.5 L 125.68973334059936 0.5 L 125.68973334059936 3.5 L 132.68973334059936 0 L 125.68973334059936 -3.5 L 125.68973334059936 -0.5 L 104.93861667029968 -0.5 Z"/><text text-anchor="middle" pointer-events="none" font-size="8px" fill="#000000" x="75.34486667029968" y="3" font-family="sans-serif">DESTINATION</text></g><g class="relationship" transform="translate(-101.34112648128526 124.97652953927616) rotate(510.731627163722)"><path class="outline" fill="#A5ABB6" stroke="none" d="M 25 0.5 L 52.53977831194331 0.5 L 52.53977831194331 -0.5 L 25 -0.5 Z M 111.72727831194331 0.5 L 139.26705662388662 0.5 L 139.26705662388662 3.5 L 146.26705662388662 0 L 139.26705662388662 -3.5 L 139.26705662388662 -0.5 L 111.72727831194331 -0.5 Z"/><text text-anchor="middle" pointer-events="none" font-size="8px" fill="#000000" x="82.13352831194331" y="3" transform="rotate(180 82.13352831194331 0)" font-family="sans-serif">DESTINATION</text></g><g class="relationship" transform="translate(-101.34112648128526 124.97652953927616) rotate(316.4018911029765)"><path class="outline" fill="#A5ABB6" stroke="none" d="M 25 0.5 L 53.43136423204747 0.5 L 53.43136423204747 -0.5 L 25 -0.5 Z M 87.87667673204747 0.5 L 116.30804096409494 0.5 L 116.30804096409494 3.5 L 123.30804096409494 0 L 116.30804096409494 -3.5 L 116.30804096409494 -0.5 L 87.87667673204747 -0.5 Z"/><text text-anchor="middle" pointer-events="none" font-size="8px" fill="#000000" x="70.65402048204747" y="3" font-family="sans-serif">ORIGIN</text></g><g class="relationship" transform="translate(-249.70372569497255 28.975635543086266) rotate(325.2874267627848)"><path class="outline" fill="#A5ABB6" stroke="none" d="M 25 0.5 L 54.936863984282255 0.5 L 54.936863984282255 -0.5 L 25 -0.5 Z M 89.38217648428225 0.5 L 119.31904046856451 0.5 L 119.31904046856451 3.5 L 126.31904046856451 0 L 119.31904046856451 -3.5 L 119.31904046856451 -0.5 L 89.38217648428225 -0.5 Z"/><text text-anchor="middle" pointer-events="none" font-size="8px" fill="#000000" x="72.15952023428225" y="3" font-family="sans-serif">ORIGIN</text></g><g class="relationship" transform="translate(-249.70372569497255 28.975635543086266) rotate(450.33165091849287)"><path class="outline" fill="#A5ABB6" stroke="none" d="M 25 0.5 L 56.77451987215947 0.5 L 56.77451987215947 -0.5 L 25 -0.5 Z M 115.96201987215947 0.5 L 147.73653974431895 0.5 L 147.73653974431895 3.5 L 154.73653974431895 0 L 147.73653974431895 -3.5 L 147.73653974431895 -0.5 L 115.96201987215947 -0.5 Z"/><text text-anchor="middle" pointer-events="none" font-size="8px" fill="#000000" x="86.36826987215947" y="3" transform="rotate(180 86.36826987215947 0)" font-family="sans-serif">DESTINATION</text></g><g class="relationship" transform="translate(-298.90948655545037 113.66129420699562) rotate(315.4552833721899)"><path class="outline" fill="#A5ABB6" stroke="none" d="M 25 0.5 L 101.06219074991628 0.5 L 101.06219074991628 -0.5 L 25 -0.5 Z M 135.50750324991628 0.5 L 211.56969399983257 0.5 L 211.56969399983257 3.5 L 218.56969399983257 0 L 211.56969399983257 -3.5 L 211.56969399983257 -0.5 L 135.50750324991628 -0.5 Z"/><text text-anchor="middle" pointer-events="none" font-size="8px" fill="#000000" x="118.28484699991628" y="3" font-family="sans-serif">ORIGIN</text></g><g class="relationship" transform="translate(-298.90948655545037 113.66129420699562) rotate(460.32218439173516)"><path class="outline" fill="#A5ABB6" stroke="none" d="M 25 0.5 L 47.569055142600746 0.5 L 47.569055142600746 -0.5 L 25 -0.5 Z M 106.75655514260075 0.5 L 129.3256102852015 0.5 L 129.3256102852015 3.5 L 136.3256102852015 0 L 129.3256102852015 -3.5 L 129.3256102852015 -0.5 L 106.75655514260075 -0.5 Z"/><text text-anchor="middle" pointer-events="none" font-size="8px" fill="#000000" x="77.16280514260075" y="3" transform="rotate(180 77.16280514260075 0)" font-family="sans-serif">DESTINATION</text></g><g class="relationship" transform="translate(-150.68497195374334 210.19059528437793) rotate(520.6553931715097)"><path class="outline" fill="#A5ABB6" stroke="none" d="M 25 0.5 L 60.771225264412976 0.5 L 60.771225264412976 -0.5 L 25 -0.5 Z M 119.95872526441298 0.5 L 155.72995052882595 0.5 L 155.72995052882595 3.5 L 162.72995052882595 0 L 155.72995052882595 -3.5 L 155.72995052882595 -0.5 L 119.95872526441298 -0.5 Z"/><text text-anchor="middle" pointer-events="none" font-size="8px" fill="#000000" x="90.36497526441298" y="3" transform="rotate(180 90.36497526441298 0)" font-family="sans-serif">DESTINATION</text></g><g class="relationship" transform="translate(-150.68497195374334 210.19059528437793) rotate(309.8972236043548)"><path class="outline" fill="#A5ABB6" stroke="none" d="M 25 0.5 L 101.46684111311238 0.5 L 101.46684111311238 -0.5 L 25 -0.5 Z M 135.91215361311237 0.5 L 212.37899472622476 0.5 L 212.37899472622476 3.5 L 219.37899472622476 0 L 212.37899472622476 -3.5 L 212.37899472622476 -0.5 L 135.91215361311237 -0.5 Z"/><text text-anchor="middle" pointer-events="none" font-size="8px" fill="#000000" x="118.68949736311238" y="3" font-family="sans-serif">ORIGIN</text></g><g class="relationship" transform="translate(-199.8417714732832 124.6093510356112) rotate(490.8944808884104)"><path class="outline" fill="#A5ABB6" stroke="none" d="M 25 0.5 L 64.64628480029891 0.5 L 64.64628480029891 -0.5 L 25 -0.5 Z M 123.83378480029891 0.5 L 163.48006960059783 0.5 L 163.48006960059783 3.5 L 170.48006960059783 0 L 163.48006960059783 -3.5 L 163.48006960059783 -0.5 L 123.83378480029891 -0.5 Z"/><text text-anchor="middle" pointer-events="none" font-size="8px" fill="#000000" x="94.24003480029891" y="3" transform="rotate(180 94.24003480029891 0)" font-family="sans-serif">DESTINATION</text></g><g class="relationship" transform="translate(-199.8417714732832 124.6093510356112) rotate(333.66846620616934)"><path class="outline" fill="#A5ABB6" stroke="none" d="M 25 0.5 L 94.1483435246169 0.5 L 94.1483435246169 -0.5 L 25 -0.5 Z M 128.5936560246169 0.5 L 197.7419995492338 0.5 L 197.7419995492338 3.5 L 204.7419995492338 0 L 197.7419995492338 -3.5 L 197.7419995492338 -0.5 L 128.5936560246169 -0.5 Z"/><text text-anchor="middle" pointer-events="none" font-size="8px" fill="#000000" x="111.3709997746169" y="3" font-family="sans-serif">ORIGIN</text></g><g class="relationship" transform="translate(20.951388544430948 142.29144092876473) rotate(526.2630812269879)"><path class="outline" fill="#A5ABB6" stroke="none" d="M 25 0.5 L 106.7541640381952 0.5 L 106.7541640381952 -0.5 L 25 -0.5 Z M 165.9416640381952 0.5 L 247.6958280763904 0.5 L 247.6958280763904 3.5 L 254.6958280763904 0 L 247.6958280763904 -3.5 L 247.6958280763904 -0.5 L 165.9416640381952 -0.5 Z"/><text text-anchor="middle" pointer-events="none" font-size="8px" fill="#000000" x="136.3479140381952" y="3" transform="rotate(180 136.3479140381952 0)" font-family="sans-serif">DESTINATION</text></g><g class="relationship" transform="translate(20.951388544430948 142.29144092876473) rotate(342.7980001920855)"><path class="outline" fill="#A5ABB6" stroke="none" d="M 25 0.5 L 114.99880995788538 0.5 L 114.99880995788538 -0.5 L 25 -0.5 Z M 149.44412245788538 0.5 L 239.44293241577077 0.5 L 239.44293241577077 3.5 L 246.44293241577077 0 L 239.44293241577077 -3.5 L 239.44293241577077 -0.5 L 149.44412245788538 -0.5 Z"/><text text-anchor="middle" pointer-events="none" font-size="8px" fill="#000000" x="132.22146620788538" y="3" font-family="sans-serif">ORIGIN</text></g></g><g class="layer nodes"><g class="node" aria-label="graph-node5" transform="translate(-125.31658483534048,-57.194493835330675)"><circle class="outline" cx="0" cy="0" r="25" fill="#ECB5C9" stroke="#da7298" stroke-width="2px"/><text class="caption" text-anchor="middle" pointer-events="none" x="0" y="5" font-size="10px" fill="#2A2C34" font-family="sans-serif"> LAX</text></g><g class="node" aria-label="graph-node70" transform="translate(659.4361277721277,101.6928653884606)"><circle class="outline" cx="0" cy="0" r="25" fill="#ECB5C9" stroke="#da7298" stroke-width="2px"/><text class="caption" text-anchor="middle" pointer-events="none" x="0" y="5" font-size="10px" fill="#2A2C34" font-family="sans-serif"> DAY</text></g><g class="node" aria-label="graph-node659" transform="translate(-52.16062231544575,208.88358680819175)"><circle class="outline" cx="0" cy="0" r="25" fill="#8DCC93" stroke="#5db665" stroke-width="2px"/><text class="caption" text-anchor="middle" pointer-events="none" x="0" y="5" font-size="10px" fill="#2A2C34" font-family="sans-serif"> 11/29/20…</text></g><g class="node" aria-label="graph-node25" transform="translate(83.05862201273682,367.13059428936725)"><circle class="outline" cx="0" cy="0" r="25" fill="#ECB5C9" stroke="#da7298" stroke-width="2px"/><text class="caption" text-anchor="middle" pointer-events="none" x="0" y="5" font-size="10px" fill="#2A2C34" font-family="sans-serif"> LAS</text></g><g class="node" aria-label="graph-node591" transform="translate(41.07296786877245,238.86616457856368)"><circle class="outline" cx="0" cy="0" r="25" fill="#8DCC93" stroke="#5db665" stroke-width="2px"/><text class="caption" text-anchor="middle" pointer-events="none" x="0" y="5" font-size="10px" fill="#2A2C34" font-family="sans-serif"> 11/29/20…</text></g><g class="node" aria-label="graph-node7" transform="translate(6.062759274342687,22.703950911377625)"><circle class="outline" cx="0" cy="0" r="25" fill="#ECB5C9" stroke="#da7298" stroke-width="2px"/><text class="caption" text-anchor="middle" pointer-events="none" x="0" y="5" font-size="10px" fill="#2A2C34" font-family="sans-serif"> ORD</text></g><g class="node" aria-label="graph-node319" transform="translate(189.3806647591035,22.744720032772506)"><circle class="outline" cx="0" cy="0" r="25" fill="#8DCC93" stroke="#5db665" stroke-width="2px"/><text class="caption" text-anchor="middle" pointer-events="none" x="0" y="5" font-size="10px" fill="#2A2C34" font-family="sans-serif"> 11/29/20…</text></g><g class="node" aria-label="graph-node8" transform="translate(403.3586522572553,32.60519193340126)"><circle class="outline" cx="0" cy="0" r="25" fill="#ECB5C9" stroke="#da7298" stroke-width="2px"/><text class="caption" text-anchor="middle" pointer-events="none" x="0" y="5" font-size="10px" fill="#2A2C34" font-family="sans-serif"> MSP</text></g><g class="node" aria-label="graph-node1087" transform="translate(542.8887424465761,116.45691801751748)"><circle class="outline" cx="0" cy="0" r="25" fill="#8DCC93" stroke="#5db665" stroke-width="2px"/><text class="caption" text-anchor="middle" pointer-events="none" x="0" y="5" font-size="10px" fill="#2A2C34" font-family="sans-serif"> 11/25/20…</text></g><g class="node" aria-label="graph-node495" transform="translate(119.86598560995509,179.7472778386326)"><circle class="outline" cx="0" cy="0" r="25" fill="#8DCC93" stroke="#5db665" stroke-width="2px"/><text class="caption" text-anchor="middle" pointer-events="none" x="0" y="5" font-size="10px" fill="#2A2C34" font-family="sans-serif"> 11/29/20…</text></g><g class="node" aria-label="graph-node643" transform="translate(235.67267041416903,269.6831588891793)"><circle class="outline" cx="0" cy="0" r="25" fill="#8DCC93" stroke="#5db665" stroke-width="2px"/><text class="caption" text-anchor="middle" pointer-events="none" x="0" y="5" font-size="10px" fill="#2A2C34" font-family="sans-serif"> 11/29/20…</text></g><g class="node" aria-label="graph-node17" transform="translate(280.252146666519,62.01453020231073)"><circle class="outline" cx="0" cy="0" r="25" fill="#ECB5C9" stroke="#da7298" stroke-width="2px"/><text class="caption" text-anchor="middle" pointer-events="none" x="0" y="5" font-size="10px" fill="#2A2C34" font-family="sans-serif"> DEN</text></g><g class="node" aria-label="graph-node623" transform="translate(390.60678269936807,185.03857336348602)"><circle class="outline" cx="0" cy="0" r="25" fill="#8DCC93" stroke="#5db665" stroke-width="2px"/><text class="caption" text-anchor="middle" pointer-events="none" x="0" y="5" font-size="10px" fill="#2A2C34" font-family="sans-serif"> 11/29/20…</text></g><g class="node" aria-label="graph-node1091" transform="translate(539.9353916049224,-78.74958274910138)"><circle class="outline" cx="0" cy="0" r="25" fill="#8DCC93" stroke="#5db665" stroke-width="2px"/><text class="caption" text-anchor="middle" pointer-events="none" x="0" y="5" font-size="10px" fill="#2A2C34" font-family="sans-serif"> 11/23/20…</text></g><g class="node" aria-label="graph-node1083" transform="translate(527.945786699969,19.63956876039644)"><circle class="outline" cx="0" cy="0" r="25" fill="#8DCC93" stroke="#5db665" stroke-width="2px"/><text class="caption" text-anchor="middle" pointer-events="none" x="0" y="5" font-size="10px" fill="#2A2C34" font-family="sans-serif"> 11/20/20…</text></g><g class="node" aria-label="graph-node1075" transform="translate(617.9603771235752,-18.991676358406103)"><circle class="outline" cx="0" cy="0" r="25" fill="#8DCC93" stroke="#5db665" stroke-width="2px"/><text class="caption" text-anchor="middle" pointer-events="none" x="0" y="5" font-size="10px" fill="#2A2C34" font-family="sans-serif"> 11/11/20…</text></g><g class="node" aria-label="graph-node595" transform="translate(201.19565087515315,120.03789485517225)"><circle class="outline" cx="0" cy="0" r="25" fill="#8DCC93" stroke="#5db665" stroke-width="2px"/><text class="caption" text-anchor="middle" pointer-events="none" x="0" y="5" font-size="10px" fill="#2A2C34" font-family="sans-serif"> 11/29/20…</text></g><g class="node" aria-label="graph-node119" transform="translate(229.2755531030573,-66.25243520274847)"><circle class="outline" cx="0" cy="0" r="25" fill="#8DCC93" stroke="#5db665" stroke-width="2px"/><text class="caption" text-anchor="middle" pointer-events="none" x="0" y="5" font-size="10px" fill="#2A2C34" font-family="sans-serif"> 11/30/20…</text></g><g class="node" aria-label="graph-node1007" transform="translate(-3.665109938171904,-226.06711804684727)"><circle class="outline" cx="0" cy="0" r="25" fill="#8DCC93" stroke="#5db665" stroke-width="2px"/><text class="caption" text-anchor="middle" pointer-events="none" x="0" y="0" font-size="10px" fill="#2A2C34" font-family="sans-serif"> 11/3/2015</text><text class="caption" text-anchor="middle" pointer-events="none" x="0" y="10" font-size="10px" fill="#2A2C34" font-family="sans-serif"> 13:44:…</text></g><g class="node" aria-label="graph-node13" transform="translate(70.69876264377778,-338.9214399952341)"><circle class="outline" cx="0" cy="0" r="25" fill="#ECB5C9" stroke="#da7298" stroke-width="2px"/><text class="caption" text-anchor="middle" pointer-events="none" x="0" y="5" font-size="10px" fill="#2A2C34" font-family="sans-serif"> SMF</text></g><g class="node" aria-label="graph-node179" transform="translate(226.0060693951521,-184.79340921393813)"><circle class="outline" cx="0" cy="0" r="25" fill="#8DCC93" stroke="#5db665" stroke-width="2px"/><text class="caption" text-anchor="middle" pointer-events="none" x="0" y="5" font-size="10px" fill="#2A2C34" font-family="sans-serif"> 11/30/20…</text></g><g class="node" aria-label="graph-node999" transform="translate(-151.30371786539828,-312.45922697701366)"><circle class="outline" cx="0" cy="0" r="25" fill="#8DCC93" stroke="#5db665" stroke-width="2px"/><text class="caption" text-anchor="middle" pointer-events="none" x="0" y="0" font-size="10px" fill="#2A2C34" font-family="sans-serif"> 11/1/2015</text><text class="caption" text-anchor="middle" pointer-events="none" x="0" y="10" font-size="10px" fill="#2A2C34" font-family="sans-serif"> 12:26:…</text></g><g class="node" aria-label="graph-node995" transform="translate(-101.66034634056467,-228.45293436705109)"><circle class="outline" cx="0" cy="0" r="25" fill="#8DCC93" stroke="#5db665" stroke-width="2px"/><text class="caption" text-anchor="middle" pointer-events="none" x="0" y="0" font-size="10px" fill="#2A2C34" font-family="sans-serif"> 11/2/2015</text><text class="caption" text-anchor="middle" pointer-events="none" x="0" y="10" font-size="10px" fill="#2A2C34" font-family="sans-serif"> 11:49:…</text></g><g class="node" aria-label="graph-node1003" transform="translate(-53.01883665351864,-311.2790324503389)"><circle class="outline" cx="0" cy="0" r="25" fill="#8DCC93" stroke="#5db665" stroke-width="2px"/><text class="caption" text-anchor="middle" pointer-events="none" x="0" y="0" font-size="10px" fill="#2A2C34" font-family="sans-serif"> 11/4/2015</text><text class="caption" text-anchor="middle" pointer-events="none" x="0" y="10" font-size="10px" fill="#2A2C34" font-family="sans-serif"> 05:06:…</text></g><g class="node" aria-label="graph-node1079" transform="translate(504.01006877115316,206.11006865956531)"><circle class="outline" cx="0" cy="0" r="25" fill="#8DCC93" stroke="#5db665" stroke-width="2px"/><text class="caption" text-anchor="middle" pointer-events="none" x="0" y="5" font-size="10px" fill="#2A2C34" font-family="sans-serif"> 11/16/20…</text></g><g class="node" aria-label="graph-node175" transform="translate(126.55189130797388,-171.21257123944073)"><circle class="outline" cx="0" cy="0" r="25" fill="#8DCC93" stroke="#5db665" stroke-width="2px"/><text class="caption" text-anchor="middle" pointer-events="none" x="0" y="5" font-size="10px" fill="#2A2C34" font-family="sans-serif"> 11/30/20…</text></g><g class="node" aria-label="graph-node567" transform="translate(34.938204856806564,-136.26219651030758)"><circle class="outline" cx="0" cy="0" r="25" fill="#8DCC93" stroke="#5db665" stroke-width="2px"/><text class="caption" text-anchor="middle" pointer-events="none" x="0" y="5" font-size="10px" fill="#2A2C34" font-family="sans-serif"> 11/29/20…</text></g><g class="node" aria-label="graph-node103" transform="translate(-312.65825016636904,-129.61173847630832)"><circle class="outline" cx="0" cy="0" r="25" fill="#8DCC93" stroke="#5db665" stroke-width="2px"/><text class="caption" text-anchor="middle" pointer-events="none" x="0" y="5" font-size="10px" fill="#2A2C34" font-family="sans-serif"> 11/30/20…</text></g><g class="node" aria-label="graph-node2" transform="translate(-270.53687046629653,-257.3654342446353)"><circle class="outline" cx="0" cy="0" r="25" fill="#ECB5C9" stroke="#da7298" stroke-width="2px"/><text class="caption" text-anchor="middle" pointer-events="none" x="0" y="5" font-size="10px" fill="#2A2C34" font-family="sans-serif"> IAH</text></g><g class="node" aria-label="graph-node527" transform="translate(-65.59862335835668,-136.19384104062652)"><circle class="outline" cx="0" cy="0" r="25" fill="#8DCC93" stroke="#5db665" stroke-width="2px"/><text class="caption" text-anchor="middle" pointer-events="none" x="0" y="5" font-size="10px" fill="#2A2C34" font-family="sans-serif"> 11/29/20…</text></g><g class="node" aria-label="graph-node515" transform="translate(-222.238941388092,-70.5185201216995)"><circle class="outline" cx="0" cy="0" r="25" fill="#8DCC93" stroke="#5db665" stroke-width="2px"/><text class="caption" text-anchor="middle" pointer-events="none" x="0" y="5" font-size="10px" fill="#2A2C34" font-family="sans-serif"> 11/29/20…</text></g><g class="node" aria-label="graph-node159" transform="translate(-161.88068247527264,-148.45033251897038)"><circle class="outline" cx="0" cy="0" r="25" fill="#8DCC93" stroke="#5db665" stroke-width="2px"/><text class="caption" text-anchor="middle" pointer-events="none" x="0" y="5" font-size="10px" fill="#2A2C34" font-family="sans-serif"> 11/30/20…</text></g><g class="node" aria-label="graph-node135" transform="translate(-347.3547098067962,27.43510954986966)"><circle class="outline" cx="0" cy="0" r="25" fill="#8DCC93" stroke="#5db665" stroke-width="2px"/><text class="caption" text-anchor="middle" pointer-events="none" x="0" y="5" font-size="10px" fill="#2A2C34" font-family="sans-serif"> 11/30/20…</text></g><g class="node" aria-label="graph-node1" transform="translate(-250.74410696080594,208.70916420728082)"><circle class="outline" cx="0" cy="0" r="25" fill="#ECB5C9" stroke="#da7298" stroke-width="2px"/><text class="caption" text-anchor="middle" pointer-events="none" x="0" y="5" font-size="10px" fill="#2A2C34" font-family="sans-serif"> EWR</text></g><g class="node" aria-label="graph-node147" transform="translate(-150.8235812471172,38.60137708085135)"><circle class="outline" cx="0" cy="0" r="25" fill="#8DCC93" stroke="#5db665" stroke-width="2px"/><text class="caption" text-anchor="middle" pointer-events="none" x="0" y="5" font-size="10px" fill="#2A2C34" font-family="sans-serif"> 11/30/20…</text></g><g class="node" aria-label="graph-node131" transform="translate(-101.34112648128526,124.97652953927616)"><circle class="outline" cx="0" cy="0" r="25" fill="#8DCC93" stroke="#5db665" stroke-width="2px"/><text class="caption" text-anchor="middle" pointer-events="none" x="0" y="5" font-size="10px" fill="#2A2C34" font-family="sans-serif"> 11/30/20…</text></g><g class="node" aria-label="graph-node543" transform="translate(-249.70372569497255,28.975635543086266)"><circle class="outline" cx="0" cy="0" r="25" fill="#8DCC93" stroke="#5db665" stroke-width="2px"/><text class="caption" text-anchor="middle" pointer-events="none" x="0" y="5" font-size="10px" fill="#2A2C34" font-family="sans-serif"> 11/29/20…</text></g><g class="node" aria-label="graph-node647" transform="translate(-298.90948655545037,113.66129420699562)"><circle class="outline" cx="0" cy="0" r="25" fill="#8DCC93" stroke="#5db665" stroke-width="2px"/><text class="caption" text-anchor="middle" pointer-events="none" x="0" y="5" font-size="10px" fill="#2A2C34" font-family="sans-serif"> 11/29/20…</text></g><g class="node" aria-label="graph-node16" transform="translate(-327.8163180368595,272.3759678436765)"><circle class="outline" cx="0" cy="0" r="25" fill="#ECB5C9" stroke="#da7298" stroke-width="2px"/><text class="caption" text-anchor="middle" pointer-events="none" x="0" y="5" font-size="10px" fill="#2A2C34" font-family="sans-serif"> BOS</text></g><g class="node" aria-label="graph-node259" transform="translate(-150.68497195374334,210.19059528437793)"><circle class="outline" cx="0" cy="0" r="25" fill="#8DCC93" stroke="#5db665" stroke-width="2px"/><text class="caption" text-anchor="middle" pointer-events="none" x="0" y="5" font-size="10px" fill="#2A2C34" font-family="sans-serif"> 11/30/20…</text></g><g class="node" aria-label="graph-node671" transform="translate(-199.8417714732832,124.6093510356112)"><circle class="outline" cx="0" cy="0" r="25" fill="#8DCC93" stroke="#5db665" stroke-width="2px"/><text class="caption" text-anchor="middle" pointer-events="none" x="0" y="5" font-size="10px" fill="#2A2C34" font-family="sans-serif"> 11/29/20…</text></g><g class="node" aria-label="graph-node231" transform="translate(20.951388544430948,142.29144092876473)"><circle class="outline" cx="0" cy="0" r="25" fill="#8DCC93" stroke="#5db665" stroke-width="2px"/><text class="caption" text-anchor="middle" pointer-events="none" x="0" y="5" font-size="10px" fill="#2A2C34" font-family="sans-serif"> 11/30/20…</text></g></g></svg>